<?xml version="1.0" encoding="UTF-8"?>
<!DOCTYPE svg PUBLIC "-//W3C//DTD SVG 1.1//EN" "http://www.w3.org/Graphics/SVG/1.1/DTD/svg11.dtd">
<svg xmlns="http://www.w3.org/2000/svg" version="1.1" width="319px" height="313px" style="shape-rendering:geometricPrecision; text-rendering:geometricPrecision; image-rendering:optimizeQuality; fill-rule:evenodd; clip-rule:evenodd" xmlns:xlink="http://www.w3.org/1999/xlink">
<g><path style="opacity:0.018" fill="#030304" d="M 153.5,-0.5 C 157.5,-0.5 161.5,-0.5 165.5,-0.5C 161.5,0.833333 157.5,0.833333 153.5,-0.5 Z"/></g>
<g><path style="opacity:0.01" fill="#0d0d0d" d="M 143.5,2.5 C 143.5,2.83333 143.5,3.16667 143.5,3.5C 141.833,3.5 140.167,3.5 138.5,3.5C 138.167,2.16667 137.833,2.16667 137.5,3.5C 137.167,3.5 136.833,3.5 136.5,3.5C 132.27,2.47382 131.603,2.47382 134.5,3.5C 133.432,4.43448 132.099,4.76781 130.5,4.5C 130.167,3.16667 129.833,3.16667 129.5,4.5C 129.167,4.5 128.833,4.5 128.5,4.5C 128.167,3.16667 127.833,3.16667 127.5,4.5C 127.5,5.16667 127.167,5.5 126.5,5.5C 126.167,4.16667 125.833,4.16667 125.5,5.5C 125.167,5.5 124.833,5.5 124.5,5.5C 124.5,5.83333 124.5,6.16667 124.5,6.5C 123.5,6.5 122.5,6.5 121.5,6.5C 121.167,5.16667 120.833,5.16667 120.5,6.5C 120.167,6.5 119.833,6.5 119.5,6.5C 119.158,5.66175 118.492,5.32842 117.5,5.5C 126.122,2.29352 135.122,0.793521 144.5,1C 138.866,1.63412 138.532,2.13412 143.5,2.5 Z"/></g>
<g><path style="opacity:0.011" fill="#0f1010" d="M 187.5,2.5 C 185.585,2.21552 183.919,2.54885 182.5,3.5C 182.167,3.5 181.833,3.5 181.5,3.5C 181.167,2.16667 180.833,2.16667 180.5,3.5C 178.5,3.5 176.5,3.5 174.5,3.5C 174.5,3.16667 174.5,2.83333 174.5,2.5C 180.804,2.169 180.47,1.669 173.5,1C 178.385,0.535062 183.052,1.03506 187.5,2.5 Z"/></g>
<g><path style="opacity:1" fill="#58587f" d="M 174.5,2.5 C 174.5,2.83333 174.5,3.16667 174.5,3.5C 164.167,3.5 153.833,3.5 143.5,3.5C 143.5,3.16667 143.5,2.83333 143.5,2.5C 153.836,1.22179 164.169,1.22179 174.5,2.5 Z"/></g>
<g><path style="opacity:0.011" fill="#0c0d0e" d="M 187.5,2.5 C 192.092,2.88157 196.425,3.88157 200.5,5.5C 198.901,5.23219 197.568,5.56552 196.5,6.5C 195.209,6.73731 194.209,6.40397 193.5,5.5C 193.167,5.5 192.833,5.5 192.5,5.5C 192.167,4.16667 191.833,4.16667 191.5,5.5C 190.833,5.5 190.5,5.16667 190.5,4.5C 189.833,3.16667 189.167,3.16667 188.5,4.5C 186.901,4.76781 185.568,4.43448 184.5,3.5C 185.791,3.73731 186.791,3.40397 187.5,2.5 Z"/></g>
<g><path style="opacity:1" fill="#545676" d="M 134.5,3.5 C 135.167,3.5 135.833,3.5 136.5,3.5C 136.389,4.11742 136.056,4.61742 135.5,5C 131.83,5.54822 128.163,6.04822 124.5,6.5C 124.5,6.16667 124.5,5.83333 124.5,5.5C 124.833,5.5 125.167,5.5 125.5,5.5C 125.833,5.5 126.167,5.5 126.5,5.5C 127.167,5.5 127.5,5.16667 127.5,4.5C 127.833,4.5 128.167,4.5 128.5,4.5C 128.833,4.5 129.167,4.5 129.5,4.5C 129.833,4.5 130.167,4.5 130.5,4.5C 132.099,4.76781 133.432,4.43448 134.5,3.5 Z"/></g>
<g><path style="opacity:0.011" fill="#09090a" d="M 117.5,5.5 C 117.842,6.33825 118.508,6.67158 119.5,6.5C 118.791,7.40397 117.791,7.73731 116.5,7.5C 116.167,6.16667 115.833,6.16667 115.5,7.5C 115.167,7.5 114.833,7.5 114.5,7.5C 112.599,7.24649 111.933,7.57982 112.5,8.5C 112.158,9.33825 111.492,9.67158 110.5,9.5C 110.167,8.16667 109.833,8.16667 109.5,9.5C 109.5,10.1667 109.167,10.5 108.5,10.5C 108.281,9.32496 108.614,8.32496 109.5,7.5C 112.096,6.51776 114.762,5.85109 117.5,5.5 Z"/></g>
<g><path style="opacity:1" fill="#e4eaeb" d="M 203.5,11.5 C 207.026,12.9739 210.693,14.3072 214.5,15.5C 258.879,33.5454 288.879,65.212 304.5,110.5C 304.66,112.153 305.326,113.486 306.5,114.5C 309.125,124.336 310.792,134.336 311.5,144.5C 311.803,156.898 311.136,169.232 309.5,181.5C 307.468,194.335 303.801,206.668 298.5,218.5C 297.326,219.514 296.66,220.847 296.5,222.5C 294.262,225.972 292.262,229.638 290.5,233.5C 279.295,251.04 265.295,266.04 248.5,278.5C 246.611,279.604 244.945,280.937 243.5,282.5C 233.591,288.288 223.257,293.288 212.5,297.5C 210.597,297.796 208.93,298.463 207.5,299.5C 156.562,314.764 109.562,307.098 66.5,276.5C 56.1938,268.194 46.8605,258.86 38.5,248.5C 37.1363,246.809 35.803,245.142 34.5,243.5C 31.4864,238.797 28.4864,234.13 25.5,229.5C 25.0075,227.181 24.0075,225.181 22.5,223.5C 9.32193,195.593 4.32193,166.259 7.5,135.5C 8.43448,134.432 8.76781,133.099 8.5,131.5C 20.7109,73.7838 54.3775,34.2838 109.5,13C 140.69,3.54103 172.023,3.04103 203.5,11.5 Z"/></g>
<g><path style="opacity:0.01" fill="#050506" d="M 200.5,5.5 C 203.067,5.72148 205.401,6.38815 207.5,7.5C 206.508,7.32842 205.842,7.66175 205.5,8.5C 205.167,8.5 204.833,8.5 204.5,8.5C 204.5,7.83333 204.167,7.5 203.5,7.5C 203.167,7.5 202.833,7.5 202.5,7.5C 202.167,6.16667 201.833,6.16667 201.5,7.5C 200.833,7.5 200.167,7.5 199.5,7.5C 198.833,7.5 198.5,7.16667 198.5,6.5C 199.492,6.67158 200.158,6.33825 200.5,5.5 Z"/></g>
<g><path style="opacity:0.011" fill="#0d0d0f" d="M 107.5,10.5 C 107.158,11.3382 106.492,11.6716 105.5,11.5C 104.791,10.596 103.791,10.2627 102.5,10.5C 103.641,9.66097 104.974,8.99431 106.5,8.5C 107.298,8.95689 107.631,9.62356 107.5,10.5 Z"/></g>
<g><path style="opacity:0.01" fill="#09090a" d="M 223.5,13.5 C 222.508,13.3284 221.842,13.6618 221.5,14.5C 220.833,14.5 220.167,14.5 219.5,14.5C 219.5,14.1667 219.5,13.8333 219.5,13.5C 219.5,12.8333 219.167,12.5 218.5,12.5C 218.167,12.5 217.833,12.5 217.5,12.5C 217.167,11.1667 216.833,11.1667 216.5,12.5C 215.508,12.6716 214.842,12.3382 214.5,11.5C 215.183,10.3559 214.849,10.3559 213.5,11.5C 212.508,11.6716 211.842,11.3382 211.5,10.5C 211.167,10.5 210.833,10.5 210.5,10.5C 210.47,9.50278 210.97,8.83611 212,8.5C 216.098,9.80504 219.932,11.4717 223.5,13.5 Z"/></g>
<g><path style="opacity:0.016" fill="#040405" d="M 100.5,11.5 C 100.842,10.6618 101.508,10.3284 102.5,10.5C 102.5,11.1667 102.833,11.5 103.5,11.5C 103.158,12.3382 102.492,12.6716 101.5,12.5C 101.5,11.8333 101.167,11.5 100.5,11.5 Z"/></g>
<g><path style="opacity:0.009" fill="#0c0b0d" d="M 100.5,11.5 C 100.5,11.8333 100.5,12.1667 100.5,12.5C 99.8333,12.5 99.5,12.8333 99.5,13.5C 99.1583,14.3382 98.4916,14.6716 97.5,14.5C 97.0825,13.7784 96.4158,13.2784 95.5,13C 97.0249,11.9914 98.6916,11.4914 100.5,11.5 Z"/></g>
<g><path style="opacity:1" fill="#4f4e72" d="M 199.5,7.5 C 200.167,7.5 200.833,7.5 201.5,7.5C 201.833,7.5 202.167,7.5 202.5,7.5C 202.833,7.5 203.167,7.5 203.5,7.5C 204.167,7.5 204.5,7.83333 204.5,8.5C 204.833,8.5 205.167,8.5 205.5,8.5C 206.492,8.67158 207.158,8.33825 207.5,7.5C 209.379,7.39318 209.712,7.89318 208.5,9C 209.044,9.71719 209.711,10.2172 210.5,10.5C 210.833,10.5 211.167,10.5 211.5,10.5C 211.842,11.3382 212.508,11.6716 213.5,11.5C 213.833,11.5 214.167,11.5 214.5,11.5C 214.842,12.3382 215.508,12.6716 216.5,12.5C 216.833,12.5 217.167,12.5 217.5,12.5C 217.833,12.5 218.167,12.5 218.5,12.5C 219.167,12.5 219.5,12.8333 219.5,13.5C 219.5,13.8333 219.5,14.1667 219.5,14.5C 217.488,13.9862 215.488,13.8195 213.5,14C 214.056,14.3826 214.389,14.8826 214.5,15.5C 210.693,14.3072 207.026,12.9739 203.5,11.5C 204.675,11.719 205.675,11.3857 206.5,10.5C 203.898,9.86758 201.564,8.86758 199.5,7.5 Z"/></g>
<g><path style="opacity:0.011" fill="#040405" d="M 223.5,13.5 C 224.922,13.7086 226.255,14.2086 227.5,15C 228.598,15.7697 228.598,16.603 227.5,17.5C 226.833,17.5 226.5,17.1667 226.5,16.5C 226.167,15.1667 225.833,15.1667 225.5,16.5C 224.29,16.0679 223.29,15.4013 222.5,14.5C 223.167,14.5 223.5,14.1667 223.5,13.5 Z"/></g>
<g><path style="opacity:0.01" fill="#070708" d="M 93.5,15.5 C 91.7761,15.4607 91.4427,15.794 92.5,16.5C 92.5,16.8333 92.5,17.1667 92.5,17.5C 91.8333,17.5 91.1667,17.5 90.5,17.5C 89.4019,16.603 89.4019,15.7697 90.5,15C 91.7494,14.2599 92.7494,14.4265 93.5,15.5 Z"/></g>
<g><path style="opacity:0.996" fill="#44435d" d="M 219.5,14.5 C 220.167,14.5 220.833,14.5 221.5,14.5C 221.833,14.5 222.167,14.5 222.5,14.5C 223.29,15.4013 224.29,16.0679 225.5,16.5C 225.833,16.5 226.167,16.5 226.5,16.5C 226.5,17.1667 226.833,17.5 227.5,17.5C 229.656,15.8823 231.323,16.2157 232.5,18.5C 231.167,18.8333 231.167,19.1667 232.5,19.5C 233.29,20.4013 234.29,21.0679 235.5,21.5C 235.833,21.5 236.167,21.5 236.5,21.5C 236.5,22.1667 236.833,22.5 237.5,22.5C 237.5,22.8333 237.5,23.1667 237.5,23.5C 231.421,20.4852 225.421,17.4852 219.5,14.5 Z"/></g>
<g><path style="opacity:0.009" fill="#060707" d="M 88.5,17.5 C 87.8333,17.5 87.5,17.8333 87.5,18.5C 87.5,19.1667 87.1667,19.5 86.5,19.5C 86.5,18.8333 86.1667,18.5 85.5,18.5C 86.221,16.6182 87.221,16.2848 88.5,17.5 Z"/></g>
<g><path style="opacity:0.011" fill="#0e0e10" d="M 85.5,18.5 C 85.5,18.8333 85.5,19.1667 85.5,19.5C 85.1667,20.1667 84.8333,20.8333 84.5,21.5C 84.1667,21.5 83.8333,21.5 83.5,21.5C 83.1667,20.1667 82.8333,20.1667 82.5,21.5C 82.1667,22.5 81.5,23.1667 80.5,23.5C 80.1667,22.1667 79.8333,22.1667 79.5,23.5C 79.5,23.8333 79.5,24.1667 79.5,24.5C 78.8333,24.5 78.1667,24.5 77.5,24.5C 77.5,23.8333 77.1667,23.5 76.5,23.5C 79.2402,21.4405 82.2402,19.7738 85.5,18.5 Z"/></g>
<g><path style="opacity:0.906" fill="#5c5c75" d="M 88.5,17.5 C 89.1667,17.5 89.8333,17.5 90.5,17.5C 91.1667,17.5 91.8333,17.5 92.5,17.5C 90.1515,19.341 87.4848,20.6743 84.5,21.5C 84.8333,20.8333 85.1667,20.1667 85.5,19.5C 85.8333,19.5 86.1667,19.5 86.5,19.5C 87.1667,19.5 87.5,19.1667 87.5,18.5C 88.1667,18.5 88.5,18.1667 88.5,17.5 Z"/></g>
<g><path style="opacity:0.009" fill="#09090a" d="M 232.5,18.5 C 236.658,19.6718 240.325,21.6718 243.5,24.5C 242.833,24.5 242.5,24.8333 242.5,25.5C 241.508,25.6716 240.842,25.3382 240.5,24.5C 239.833,24.5 239.5,24.1667 239.5,23.5C 239.167,22.1667 238.833,22.1667 238.5,23.5C 238.167,23.5 237.833,23.5 237.5,23.5C 237.5,23.1667 237.5,22.8333 237.5,22.5C 236.833,22.5 236.5,22.1667 236.5,21.5C 236.167,20.1667 235.833,20.1667 235.5,21.5C 234.29,21.0679 233.29,20.4013 232.5,19.5C 232.5,19.1667 232.5,18.8333 232.5,18.5 Z"/></g>
<g><path style="opacity:1" fill="#055d3f" d="M 184.5,10.5 C 238.947,20.9617 276.947,51.6283 298.5,102.5C 297.069,102.119 296.236,101.119 296,99.5C 294.644,100.38 293.144,100.714 291.5,100.5C 290.951,98.0987 290.118,95.7654 289,93.5C 288.333,97.5 287.667,97.5 287,93.5C 285.883,94.9494 285.216,96.6161 285,98.5C 283.951,96.8934 282.451,96.2267 280.5,96.5C 283.715,94.9622 286.382,92.6289 288.5,89.5C 285.888,88.5455 283.221,88.5455 280.5,89.5C 277.637,86.5983 275.304,86.9316 273.5,90.5C 275.442,83.8969 273.942,83.2302 269,88.5C 268.251,89.635 268.417,90.635 269.5,91.5C 274.222,93.8547 277.222,97.188 278.5,101.5C 276.775,99.9084 275.775,100.242 275.5,102.5C 274.224,100.438 273.39,98.1042 273,95.5C 271.944,99.6237 272.778,103.29 275.5,106.5C 275.145,107.522 274.478,108.189 273.5,108.5C 272.611,106.264 271.278,104.264 269.5,102.5C 272.132,100.058 272.132,97.7246 269.5,95.5C 268.782,100.624 266.448,101.624 262.5,98.5C 261.771,100.595 262.437,102.428 264.5,104C 262.606,106.524 260.273,107.19 257.5,106C 258.381,106.708 259.047,107.542 259.5,108.5C 258.001,109.678 257.001,111.345 256.5,113.5C 255.242,110.4 253.742,107.4 252,104.5C 251.322,106.902 251.822,109.068 253.5,111C 252.852,112.44 252.519,113.94 252.5,115.5C 230.753,75.275 196.753,55.6083 150.5,56.5C 143.642,56.9761 136.976,56.1428 130.5,54C 131.5,53.6667 132.5,53.3333 133.5,53C 132.234,52.6905 131.067,52.1905 130,51.5C 129.667,52.1667 129.333,52.8333 129,53.5C 129.201,50.2228 129.368,46.8895 129.5,43.5C 129.833,43.5 130.167,43.5 130.5,43.5C 130.343,44.8734 130.51,46.2068 131,47.5C 132.011,46.6634 133.178,46.33 134.5,46.5C 134.357,44.7376 134.691,43.0709 135.5,41.5C 139.035,40.2282 142.535,38.8948 146,37.5C 146.191,39.7078 146.691,41.7078 147.5,43.5C 147.393,45.3786 147.893,45.7119 149,44.5C 149.217,39.4473 149.717,34.4473 150.5,29.5C 149.675,28.6143 148.675,28.281 147.5,28.5C 147.708,24.9152 146.375,22.2485 143.5,20.5C 146.093,18.7159 148.26,16.3825 150,13.5C 151.4,14.1159 152.9,14.4493 154.5,14.5C 164.428,13.1644 174.428,11.831 184.5,10.5 Z"/></g>
<g><path style="opacity:1" fill="#e2edea" d="M 143.5,20.5 C 146.375,22.2485 147.708,24.9152 147.5,28.5C 148.675,28.281 149.675,28.6143 150.5,29.5C 149.717,34.4473 149.217,39.4473 149,44.5C 147.893,45.7119 147.393,45.3786 147.5,43.5C 147.768,40.8806 147.435,38.3806 146.5,36C 143.622,36.9931 140.622,37.8264 137.5,38.5C 139.445,34.035 138.778,30.035 135.5,26.5C 137.329,25.7176 138.829,26.3843 140,28.5C 140.186,30.9005 140.686,33.2338 141.5,35.5C 143.307,34.6049 144.64,33.2716 145.5,31.5C 144.352,27.9106 143.685,24.244 143.5,20.5 Z"/></g>
<g><path style="opacity:0.011" fill="#050505" d="M 76.5,23.5 C 76.5,23.8333 76.5,24.1667 76.5,24.5C 75.8333,24.5 75.5,24.8333 75.5,25.5C 75.5,26.1667 75.1667,26.5 74.5,26.5C 74.5,25.8333 74.1667,25.5 73.5,25.5C 73.9731,24.0937 74.9731,23.427 76.5,23.5 Z"/></g>
<g><path style="opacity:0.011" fill="#000101" d="M 246.5,27.5 C 246.5,27.1667 246.5,26.8333 246.5,26.5C 248.027,26.427 249.027,27.0937 249.5,28.5C 248.833,28.5 248.5,28.8333 248.5,29.5C 247.833,29.5 247.5,29.1667 247.5,28.5C 247.5,27.8333 247.167,27.5 246.5,27.5 Z"/></g>
<g><path style="opacity:0.984" fill="#3b3a6d" d="M 219.5,14.5 C 225.421,17.4852 231.421,20.4852 237.5,23.5C 237.833,23.5 238.167,23.5 238.5,23.5C 238.833,23.5 239.167,23.5 239.5,23.5C 239.5,24.1667 239.833,24.5 240.5,24.5C 240.842,25.3382 241.508,25.6716 242.5,25.5C 243.167,25.5 243.5,25.1667 243.5,24.5C 245.027,24.427 246.027,25.0937 246.5,26.5C 245.167,26.8333 245.167,27.1667 246.5,27.5C 247.167,27.5 247.5,27.8333 247.5,28.5C 247.5,29.1667 247.833,29.5 248.5,29.5C 248.833,30.5 249.5,31.1667 250.5,31.5C 250.833,31.5 251.167,31.5 251.5,31.5C 251.5,32.1667 251.833,32.5 252.5,32.5C 253.167,32.8333 253.833,33.1667 254.5,33.5C 254.5,33.8333 254.5,34.1667 254.5,34.5C 255.262,36.2624 256.596,37.2624 258.5,37.5C 258.842,38.3382 259.508,38.6716 260.5,38.5C 260.5,39.1667 260.833,39.5 261.5,39.5C 261.5,40.1667 261.833,40.5 262.5,40.5C 268.804,48.1383 275.47,55.4717 282.5,62.5C 285.115,64.3788 287.281,66.7121 289,69.5C 292.566,75.5968 296.399,82.5968 300.5,90.5C 299.957,90.56 299.624,90.8933 299.5,91.5C 302.8,97.8977 304.967,104.564 306,111.5C 305.617,110.944 305.117,110.611 304.5,110.5C 288.879,65.212 258.879,33.5454 214.5,15.5C 214.389,14.8826 214.056,14.3826 213.5,14C 215.488,13.8195 217.488,13.9862 219.5,14.5 Z"/></g>
<g><path style="opacity:0.01" fill="#0d0d0f" d="M 249.5,28.5 C 252.307,28.9513 253.307,30.2847 252.5,32.5C 251.833,32.5 251.5,32.1667 251.5,31.5C 251.167,30.1667 250.833,30.1667 250.5,31.5C 249.5,31.1667 248.833,30.5 248.5,29.5C 249.167,29.5 249.5,29.1667 249.5,28.5 Z"/></g>
<g><path style="opacity:0.929" fill="#3b3a4b" d="M 76.5,24.5 C 76.8333,24.5 77.1667,24.5 77.5,24.5C 78.1667,24.5 78.8333,24.5 79.5,24.5C 74.6498,27.1778 69.9831,30.1778 65.5,33.5C 65.5,33.1667 65.5,32.8333 65.5,32.5C 66.1667,32.5 66.5,32.1667 66.5,31.5C 68.3223,30.719 68.9889,29.5523 68.5,28C 70.0779,26.9055 71.7446,26.0722 73.5,25.5C 74.1667,25.5 74.5,25.8333 74.5,26.5C 75.1667,26.5 75.5,26.1667 75.5,25.5C 76.1667,25.5 76.5,25.1667 76.5,24.5 Z"/></g>
<g><path style="opacity:0.014" fill="#050506" d="M 66.5,31.5 C 65.8333,31.5 65.5,31.8333 65.5,32.5C 65.5,32.8333 65.5,33.1667 65.5,33.5C 65.1667,33.5 64.8333,33.5 64.5,33.5C 63.1474,32.1329 63.4807,31.1329 65.5,30.5C 66.1067,30.6236 66.44,30.9569 66.5,31.5 Z"/></g>
<g><path style="opacity:0.012" fill="#0b0b0c" d="M 62.5,34.5 C 61.8333,34.5 61.5,34.8333 61.5,35.5C 61.1667,36.5 60.5,37.1667 59.5,37.5C 58.5371,35.7016 59.2038,34.3683 61.5,33.5C 62.1067,33.6236 62.44,33.9569 62.5,34.5 Z"/></g>
<g><path style="opacity:1" fill="#e9f1ef" d="M 188.5,22.5 C 189.705,23.6719 189.705,25.0052 188.5,26.5C 189.5,27.3333 190.5,28.1667 191.5,29C 190.315,30.353 188.981,31.5197 187.5,32.5C 187.833,32.8333 188.167,33.1667 188.5,33.5C 191.796,32.2347 195.129,31.0681 198.5,30C 200.006,27.6667 201.673,25.5 203.5,23.5C 203.289,25.0437 203.289,26.7103 203.5,28.5C 204.719,27.7366 205.719,26.7366 206.5,25.5C 207.5,25.8333 208.167,26.5 208.5,27.5C 205.658,29.425 202.991,31.5917 200.5,34C 201.5,35.6667 202.5,37.3333 203.5,39C 202.711,40.6255 201.711,42.1255 200.5,43.5C 202.031,44.6131 203.031,46.1131 203.5,48C 203.167,48.8333 202.833,49.6667 202.5,50.5C 201.019,49.5197 199.685,48.353 198.5,47C 196.102,46.6256 193.769,46.6256 191.5,47C 190.391,45.187 191.058,44.3537 193.5,44.5C 193.5,43.5 193.5,42.5 193.5,41.5C 195.792,41.7564 197.959,41.4231 200,40.5C 199.563,38.2433 199.063,35.91 198.5,33.5C 194.858,34.0804 191.191,34.5804 187.5,35C 186.714,37.9603 185.548,40.7937 184,43.5C 182.951,44.5171 181.784,44.6838 180.5,44C 182.017,41.7955 183.35,39.4622 184.5,37C 182.064,37.0534 179.731,36.8867 177.5,36.5C 177.709,35.914 178.043,35.414 178.5,35C 180.764,34.7638 182.931,34.2638 185,33.5C 185.167,33.1667 185.333,32.8333 185.5,32.5C 184.167,31.5 182.833,30.5 181.5,29.5C 185.519,28.8145 187.852,26.4812 188.5,22.5 Z"/></g>
<g><path style="opacity:0.129" fill="#2d2f37" d="M 254.5,33.5 C 254.897,32.475 255.563,32.3083 256.5,33C 256.011,34.5523 256.678,35.719 258.5,36.5C 258.5,36.8333 258.5,37.1667 258.5,37.5C 256.596,37.2624 255.262,36.2624 254.5,34.5C 255.833,34.1667 255.833,33.8333 254.5,33.5 Z"/></g>
<g><path style="opacity:0.012" fill="#080809" d="M 258.5,36.5 C 259.779,35.2848 260.779,35.6182 261.5,37.5C 260.833,37.5 260.5,37.8333 260.5,38.5C 259.508,38.6716 258.842,38.3382 258.5,37.5C 259.833,37.1667 259.833,36.8333 258.5,36.5 Z"/></g>
<g><path style="opacity:0.009" fill="#020202" d="M 57.5,38.5 C 56.8333,38.5 56.5,38.8333 56.5,39.5C 55.8333,39.5 55.5,39.8333 55.5,40.5C 54.1667,42.5 52.5,44.1667 50.5,45.5C 50.5,44.8333 50.1667,44.5 49.5,44.5C 51.2941,42.2034 53.2941,40.0367 55.5,38C 56.4368,37.3083 57.1034,37.475 57.5,38.5 Z"/></g>
<g><path style="opacity:0.013" fill="#010102" d="M 261.5,37.5 C 262.5,37.8333 263.167,38.5 263.5,39.5C 262.833,39.5 262.5,39.8333 262.5,40.5C 261.833,40.5 261.5,40.1667 261.5,39.5C 261.5,38.8333 261.5,38.1667 261.5,37.5 Z"/></g>
<g><path style="opacity:0.396" fill="#4b4d62" d="M 263.5,39.5 C 267.801,45.175 272.801,50.8417 278.5,56.5C 278.5,57.1667 278.833,57.5 279.5,57.5C 279.5,58.1667 279.833,58.5 280.5,58.5C 281.6,59.6049 282.267,60.9382 282.5,62.5C 275.47,55.4717 268.804,48.1383 262.5,40.5C 263.167,40.5 263.5,40.1667 263.5,39.5 Z"/></g>
<g><path style="opacity:0.007" fill="#030303" d="M 46.5,49.5 C 45.1667,51.5 43.5,53.1667 41.5,54.5C 41.5,53.8333 41.1667,53.5 40.5,53.5C 41.9208,50.6569 43.9208,49.3236 46.5,49.5 Z"/></g>
<g><path style="opacity:1" fill="#ebf2f0" d="M 241.5,43.5 C 243.948,43.0847 245.281,44.0847 245.5,46.5C 244.304,49.0584 242.97,51.5584 241.5,54C 243.21,55.6111 245.043,57.1111 247,58.5C 247.483,59.448 247.649,60.448 247.5,61.5C 243.276,60.8161 239.11,59.8161 235,58.5C 232.61,59.2779 230.443,60.4445 228.5,62C 227.056,62.7805 225.723,62.6139 224.5,61.5C 226.766,60.5676 228.766,59.2342 230.5,57.5C 231.645,56.2243 231.645,54.891 230.5,53.5C 231.922,52.4528 233.422,52.4528 235,53.5C 237.434,51.9928 239.434,49.9928 241,47.5C 241.49,46.2068 241.657,44.8734 241.5,43.5 Z"/></g>
<g><path style="opacity:0.01" fill="#030303" d="M 280.5,58.5 C 279.833,58.5 279.5,58.1667 279.5,57.5C 278.833,57.5 278.5,57.1667 278.5,56.5C 279.867,55.1474 280.867,55.4807 281.5,57.5C 281.376,58.1067 281.043,58.44 280.5,58.5 Z"/></g>
<g><path style="opacity:0.863" fill="#4c4e60" d="M 40.5,53.5 C 41.1667,53.5 41.5,53.8333 41.5,54.5C 41.6495,55.552 41.4828,56.552 41,57.5C 37.2502,62.0725 33.4169,66.4058 29.5,70.5C 32.1795,65.5551 35.8462,60.7217 40.5,56C 39.2264,55.0228 39.2264,54.1894 40.5,53.5 Z"/></g>
<g><path style="opacity:1" fill="#e4efec" d="M 234.5,63.5 C 241.23,66.4538 241.563,69.4538 235.5,72.5C 235.489,69.6669 235.156,66.6669 234.5,63.5 Z"/></g>
<g><path style="opacity:1" fill="#dde8e5" d="M 263.5,85.5 C 266.01,87.8961 265.677,90.2294 262.5,92.5C 261.098,92.1345 260.098,91.3012 259.5,90C 260.344,87.9933 261.677,86.4933 263.5,85.5 Z"/></g>
<g><path style="opacity:1" fill="#e7f0ee" d="M 280.5,96.5 C 282.85,98.2133 283.85,100.547 283.5,103.5C 280.763,103.599 278.096,103.265 275.5,102.5C 275.775,100.242 276.775,99.9084 278.5,101.5C 277.222,97.188 274.222,93.8547 269.5,91.5C 268.417,90.635 268.251,89.635 269,88.5C 273.942,83.2302 275.442,83.8969 273.5,90.5C 275.304,86.9316 277.637,86.5983 280.5,89.5C 283.221,88.5455 285.888,88.5455 288.5,89.5C 286.382,92.6289 283.715,94.9622 280.5,96.5 Z"/></g>
<g><path style="opacity:1" fill="#578572" d="M 275.5,91.5 C 277.924,91.1924 280.257,91.5258 282.5,92.5C 281.333,92.8333 280.167,93.1667 279,93.5C 277.319,93.3917 276.152,92.7251 275.5,91.5 Z"/></g>
<g><path style="opacity:0.682" fill="#4f5068" d="M 300.5,90.5 C 301.263,92.3684 302.263,94.0351 303.5,95.5C 303.796,97.403 304.463,99.0697 305.5,100.5C 305.402,102.553 306.069,104.22 307.5,105.5C 307.674,107.861 308.007,110.194 308.5,112.5C 307.167,112.5 306.5,113.167 306.5,114.5C 305.326,113.486 304.66,112.153 304.5,110.5C 305.117,110.611 305.617,110.944 306,111.5C 304.967,104.564 302.8,97.8977 299.5,91.5C 299.624,90.8933 299.957,90.56 300.5,90.5 Z"/></g>
<g><path style="opacity:0.008" fill="#000101" d="M 303.5,95.5 C 303.369,94.7611 303.536,94.0944 304,93.5C 304.692,94.4368 304.525,95.1034 303.5,95.5 Z"/></g>
<g><path style="opacity:1" fill="#075d3f" d="M 184.5,10.5 C 174.428,11.831 164.428,13.1644 154.5,14.5C 152.9,14.4493 151.4,14.1159 150,13.5C 148.26,16.3825 146.093,18.7159 143.5,20.5C 143.685,24.244 144.352,27.9106 145.5,31.5C 144.64,33.2716 143.307,34.6049 141.5,35.5C 140.686,33.2338 140.186,30.9005 140,28.5C 138.829,26.3843 137.329,25.7176 135.5,26.5C 138.778,30.035 139.445,34.035 137.5,38.5C 140.622,37.8264 143.622,36.9931 146.5,36C 147.435,38.3806 147.768,40.8806 147.5,43.5C 146.691,41.7078 146.191,39.7078 146,37.5C 142.535,38.8948 139.035,40.2282 135.5,41.5C 134.691,43.0709 134.357,44.7376 134.5,46.5C 133.178,46.33 132.011,46.6634 131,47.5C 130.51,46.2068 130.343,44.8734 130.5,43.5C 133.04,46.1368 133.706,45.6368 132.5,42C 132.95,40.7147 133.617,39.548 134.5,38.5C 132.833,37.5 131.5,36.1667 130.5,34.5C 134.75,29.738 133.75,28.4046 127.5,30.5C 127.719,31.675 127.386,32.675 126.5,33.5C 124.587,34.373 122.753,35.373 121,36.5C 120.517,37.448 120.351,38.448 120.5,39.5C 123.285,39.067 125.619,37.7337 127.5,35.5C 128.631,37.0745 128.798,38.7412 128,40.5C 126.953,42.7621 125.787,44.9288 124.5,47C 124.833,47.5 125.167,48 125.5,48.5C 126.612,46.5808 127.946,44.9142 129.5,43.5C 129.368,46.8895 129.201,50.2228 129,53.5C 129.333,52.8333 129.667,52.1667 130,51.5C 131.067,52.1905 132.234,52.6905 133.5,53C 132.5,53.3333 131.5,53.6667 130.5,54C 136.976,56.1428 143.642,56.9761 150.5,56.5C 100.4,64.7643 69.8999,93.7643 59,143.5C 55.2395,193.832 76.0728,229.665 121.5,251C 160.779,264.534 196.445,258.201 228.5,232C 261.571,198.423 269.571,159.589 252.5,115.5C 252.519,113.94 252.852,112.44 253.5,111C 251.822,109.068 251.322,106.902 252,104.5C 253.742,107.4 255.242,110.4 256.5,113.5C 257.001,111.345 258.001,109.678 259.5,108.5C 262.157,108.838 264.49,108.171 266.5,106.5C 268.167,107.833 269.833,109.167 271.5,110.5C 272.522,110.145 273.189,109.478 273.5,108.5C 274.478,108.189 275.145,107.522 275.5,106.5C 272.778,103.29 271.944,99.6237 273,95.5C 273.39,98.1042 274.224,100.438 275.5,102.5C 278.096,103.265 280.763,103.599 283.5,103.5C 283.85,100.547 282.85,98.2133 280.5,96.5C 282.451,96.2267 283.951,96.8934 285,98.5C 285.216,96.6161 285.883,94.9494 287,93.5C 287.667,97.5 288.333,97.5 289,93.5C 290.118,95.7654 290.951,98.0987 291.5,100.5C 293.144,100.714 294.644,100.38 296,99.5C 296.236,101.119 297.069,102.119 298.5,102.5C 317.647,156.635 309.48,206.302 274,251.5C 237.661,291.288 192.495,308.455 138.5,303C 84.4543,293.939 45.621,264.772 22,215.5C -1.82949,154.197 8.50384,99.5303 53,51.5C 90.1588,16.3913 133.992,2.72466 184.5,10.5 Z"/></g>
<g><path style="opacity:1" fill="#e1eae8" d="M 37.5,85.5 C 39.9477,85.0847 41.2811,86.0847 41.5,88.5C 40.2978,91.0363 38.2978,92.3697 35.5,92.5C 35.4003,89.8915 36.0669,87.5582 37.5,85.5 Z"/></g>
<g><path style="opacity:1" fill="#e2ece9" d="M 45.5,74.5 C 49.938,73.4251 51.938,75.0917 51.5,79.5C 48.9897,79.0093 46.6564,78.0093 44.5,76.5C 44.8627,75.8165 45.1961,75.1499 45.5,74.5 Z"/></g>
<g><path style="opacity:1" fill="#dfeae7" d="M 72.5,52.5 C 73.5,52.5 74.5,52.5 75.5,52.5C 75.3398,54.1992 75.5065,55.8659 76,57.5C 79.0535,60.8866 81.7202,64.5533 84,68.5C 84.3333,66.8333 84.6667,65.1667 85,63.5C 87.8598,67.2195 88.0265,70.8862 85.5,74.5C 81.7683,70.0506 78.2683,65.3839 75,60.5C 73.2932,58.0912 72.4598,55.4245 72.5,52.5 Z"/></g>
<g><path style="opacity:1" fill="#dae8e3" d="M 100.5,57.5 C 101.5,57.5 102.5,57.5 103.5,57.5C 104.16,63.8148 102.493,64.8148 98.5,60.5C 99.1925,59.4822 99.8592,58.4822 100.5,57.5 Z"/></g>
<g><path style="opacity:1" fill="#dae7e3" d="M 84.5,54.5 C 85.5,54.5 86.5,54.5 87.5,54.5C 86.9407,59.6393 85.9407,59.6393 84.5,54.5 Z"/></g>
<g><path style="opacity:1" fill="#7a9d91" d="M 89.5,45.5 C 89.8333,45.5 90.1667,45.5 90.5,45.5C 89.5,47.1667 88.1667,48.5 86.5,49.5C 85.5,48.8333 84.5,48.1667 83.5,47.5C 85.8583,47.7475 87.8583,47.0808 89.5,45.5 Z"/></g>
<g><path style="opacity:1" fill="#e5edeb" d="M 86.5,49.5 C 88.1667,48.5 89.5,47.1667 90.5,45.5C 91.7079,44.7659 93.0413,44.4326 94.5,44.5C 93.564,48.2672 93.3973,51.9339 94,55.5C 95.5,54 97,52.5 98.5,51C 99.4835,50.4092 100.15,50.7425 100.5,52C 99.0557,54.4485 97.2224,56.6152 95,58.5C 94.6667,61.1667 94.3333,63.8333 94,66.5C 92.6821,60.5111 90.1821,54.8444 86.5,49.5 Z"/></g>
<g><path style="opacity:1" fill="#eff5f4" d="M 89.5,45.5 C 87.8583,47.0808 85.8583,47.7475 83.5,47.5C 81.742,47.8769 80.0754,48.5435 78.5,49.5C 77.9426,47.2825 77.9426,44.9491 78.5,42.5C 82.6383,42.0268 84.6383,39.6935 84.5,35.5C 86.1667,35.5 87.8333,35.5 89.5,35.5C 88.6365,38.3743 87.3032,41.0409 85.5,43.5C 85.6667,44.1667 85.8333,44.8333 86,45.5C 87.5545,43.0728 88.7211,43.0728 89.5,45.5 Z"/></g>
<g><path style="opacity:1" fill="#e5efec" d="M 130.5,43.5 C 130.167,43.5 129.833,43.5 129.5,43.5C 127.946,44.9142 126.612,46.5808 125.5,48.5C 125.167,48 124.833,47.5 124.5,47C 125.787,44.9288 126.953,42.7621 128,40.5C 128.798,38.7412 128.631,37.0745 127.5,35.5C 125.619,37.7337 123.285,39.067 120.5,39.5C 120.351,38.448 120.517,37.448 121,36.5C 122.753,35.373 124.587,34.373 126.5,33.5C 127.386,32.675 127.719,31.675 127.5,30.5C 133.75,28.4046 134.75,29.738 130.5,34.5C 131.5,36.1667 132.833,37.5 134.5,38.5C 133.617,39.548 132.95,40.7147 132.5,42C 133.706,45.6368 133.04,46.1368 130.5,43.5 Z"/></g>
<g><path style="opacity:1" fill="#edf3f2" d="M 126.5,21.5 C 127.978,21.238 129.311,21.5713 130.5,22.5C 129.68,24.1112 128.346,24.7778 126.5,24.5C 126.5,23.5 126.5,22.5 126.5,21.5 Z"/></g>
<g><path style="opacity:1" fill="#e6efed" d="M 39.5,81.5 C 43.3943,82.3018 47.061,83.8018 50.5,86C 56.1074,87.3235 61.774,88.3235 67.5,89C 68.3567,89.6891 69.0233,90.5224 69.5,91.5C 62.1674,92.2538 55.1674,90.9205 48.5,87.5C 46.1712,89.6549 45.3379,92.3216 46,95.5C 46.414,95.9574 46.914,96.2907 47.5,96.5C 48.5,95.1667 49.5,93.8333 50.5,92.5C 51.7199,92.8869 52.3865,93.7202 52.5,95C 51.8333,96.3333 51.1667,97.6667 50.5,99C 51.3185,100.319 52.3185,101.485 53.5,102.5C 54.9689,99.7021 55.8022,96.7021 56,93.5C 59.1603,97.4166 59.1603,101.417 56,105.5C 52.5809,111.594 48.7476,111.928 44.5,106.5C 46.8333,105.833 49.1667,105.167 51.5,104.5C 49.489,102.659 47.3224,100.992 45,99.5C 42.8462,100.32 41.3462,101.82 40.5,104C 39.552,104.483 38.552,104.649 37.5,104.5C 38.6555,98.525 40.6555,92.8583 43.5,87.5C 42.1421,85.4968 40.8087,83.4968 39.5,81.5 Z"/></g>
<g><path style="opacity:0.008" fill="#000000" d="M 306.5,100.5 C 306.167,100.5 305.833,100.5 305.5,100.5C 305.833,96.5 306.167,96.5 306.5,100.5 Z"/></g>
<g><path style="opacity:0.992" fill="#3c3c6f" d="M 136.5,3.5 C 136.833,3.5 137.167,3.5 137.5,3.5C 137.833,3.5 138.167,3.5 138.5,3.5C 140.167,3.5 141.833,3.5 143.5,3.5C 153.833,3.5 164.167,3.5 174.5,3.5C 176.5,3.5 178.5,3.5 180.5,3.5C 180.833,3.5 181.167,3.5 181.5,3.5C 181.833,3.5 182.167,3.5 182.5,3.5C 183.167,3.5 183.833,3.5 184.5,3.5C 185.568,4.43448 186.901,4.76781 188.5,4.5C 189.167,4.5 189.833,4.5 190.5,4.5C 190.5,5.16667 190.833,5.5 191.5,5.5C 191.833,5.5 192.167,5.5 192.5,5.5C 192.833,5.5 193.167,5.5 193.5,5.5C 194.209,6.40397 195.209,6.73731 196.5,6.5C 197.167,6.5 197.833,6.5 198.5,6.5C 198.5,7.16667 198.833,7.5 199.5,7.5C 201.564,8.86758 203.898,9.86758 206.5,10.5C 205.675,11.3857 204.675,11.719 203.5,11.5C 172.023,3.04103 140.69,3.54103 109.5,13C 54.3775,34.2838 20.7109,73.7838 8.5,131.5C 7.36216,128.696 7.19549,125.696 8,122.5C 10.3228,114.875 12.4895,107.208 14.5,99.5C 18.1799,89.1088 23.1799,79.4422 29.5,70.5C 33.4169,66.4058 37.2502,62.0725 41,57.5C 41.4828,56.552 41.6495,55.552 41.5,54.5C 43.5,53.1667 45.1667,51.5 46.5,49.5C 47.7161,47.6961 48.7161,46.0294 49.5,44.5C 50.1667,44.5 50.5,44.8333 50.5,45.5C 52.5,44.1667 54.1667,42.5 55.5,40.5C 56.1667,40.5 56.5,40.1667 56.5,39.5C 57.1667,39.5 57.5,39.1667 57.5,38.5C 58.1667,38.1667 58.8333,37.8333 59.5,37.5C 60.5,37.1667 61.1667,36.5 61.5,35.5C 62.1667,35.5 62.5,35.1667 62.5,34.5C 63.1667,34.1667 63.8333,33.8333 64.5,33.5C 64.8333,33.5 65.1667,33.5 65.5,33.5C 69.9831,30.1778 74.6498,27.1778 79.5,24.5C 79.5,24.1667 79.5,23.8333 79.5,23.5C 79.8333,23.5 80.1667,23.5 80.5,23.5C 81.5,23.1667 82.1667,22.5 82.5,21.5C 82.8333,21.5 83.1667,21.5 83.5,21.5C 83.8333,21.5 84.1667,21.5 84.5,21.5C 87.4848,20.6743 90.1515,19.341 92.5,17.5C 92.5,17.1667 92.5,16.8333 92.5,16.5C 93.1667,16.5 93.5,16.1667 93.5,15.5C 94.8333,15.1667 96.1667,14.8333 97.5,14.5C 98.4916,14.6716 99.1583,14.3382 99.5,13.5C 100.167,13.5 100.5,13.1667 100.5,12.5C 100.833,12.5 101.167,12.5 101.5,12.5C 102.492,12.6716 103.158,12.3382 103.5,11.5C 104.167,11.5 104.833,11.5 105.5,11.5C 106.492,11.6716 107.158,11.3382 107.5,10.5C 107.833,10.5 108.167,10.5 108.5,10.5C 109.167,10.5 109.5,10.1667 109.5,9.5C 109.833,9.5 110.167,9.5 110.5,9.5C 111.492,9.67158 112.158,9.33825 112.5,8.5C 113.492,8.67158 114.158,8.33825 114.5,7.5C 114.833,7.5 115.167,7.5 115.5,7.5C 115.833,7.5 116.167,7.5 116.5,7.5C 117.791,7.73731 118.791,7.40397 119.5,6.5C 119.833,6.5 120.167,6.5 120.5,6.5C 120.833,6.5 121.167,6.5 121.5,6.5C 122.5,6.5 123.5,6.5 124.5,6.5C 128.163,6.04822 131.83,5.54822 135.5,5C 136.056,4.61742 136.389,4.11742 136.5,3.5 Z"/></g>
<g><path style="opacity:0.012" fill="#010201" d="M 306.5,100.5 C 307.525,100.897 307.692,101.563 307,102.5C 306.536,101.906 306.369,101.239 306.5,100.5 Z"/></g>
<g><path style="opacity:0.008" fill="#010101" d="M 10.5,107.5 C 9.77842,107.918 9.27842,108.584 9,109.5C 8.67533,107.447 9.00867,105.447 10,103.5C 10.49,104.793 10.6567,106.127 10.5,107.5 Z"/></g>
<g><path style="opacity:0.012" fill="#010202" d="M 308.5,105.5 C 308.167,105.5 307.833,105.5 307.5,105.5C 307.833,102.833 308.167,102.833 308.5,105.5 Z"/></g>
<g><path style="opacity:1" fill="#e6efec" d="M 273.5,108.5 C 273.189,109.478 272.522,110.145 271.5,110.5C 269.833,109.167 268.167,107.833 266.5,106.5C 264.49,108.171 262.157,108.838 259.5,108.5C 259.047,107.542 258.381,106.708 257.5,106C 260.273,107.19 262.606,106.524 264.5,104C 262.437,102.428 261.771,100.595 262.5,98.5C 266.448,101.624 268.782,100.624 269.5,95.5C 272.132,97.7246 272.132,100.058 269.5,102.5C 271.278,104.264 272.611,106.264 273.5,108.5 Z"/></g>
<g><path style="opacity:0.008" fill="#010101" d="M 308.5,105.5 C 309.573,106.251 309.74,107.251 309,108.5C 308.517,107.552 308.351,106.552 308.5,105.5 Z"/></g>
<g><path style="opacity:0.013" fill="#010202" d="M 311.5,118.5 C 311.351,117.448 311.517,116.448 312,115.5C 312.74,116.749 312.573,117.749 311.5,118.5 Z"/></g>
<g><path style="opacity:0.816" fill="#414250" d="M 308.5,112.5 C 309.5,114.5 310.5,116.5 311.5,118.5C 314.456,134.353 315.79,150.353 315.5,166.5C 315.167,166.5 314.833,166.5 314.5,166.5C 314.824,159.646 314.491,152.979 313.5,146.5C 312.915,134.991 311.248,123.658 308.5,112.5 Z"/></g>
<g><path style="opacity:1" fill="#2e2e6b" d="M 308.5,112.5 C 311.248,123.658 312.915,134.991 313.5,146.5C 313.666,153.175 313.5,159.842 313,166.5C 312.829,158.989 312.329,151.655 311.5,144.5C 310.792,134.336 309.125,124.336 306.5,114.5C 306.5,113.167 307.167,112.5 308.5,112.5 Z"/></g>
<g><path style="opacity:0.015" fill="#020202" d="M 316.5,166.5 C 316.334,159.492 316.5,152.492 317,145.5C 317.821,152.679 317.655,159.679 316.5,166.5 Z"/></g>
<g><path style="opacity:1" fill="#deeae6" d="M 284.5,150.5 C 287.69,153.353 291.357,155.353 295.5,156.5C 291.199,156.823 287.532,158.489 284.5,161.5C 283.479,160.998 283.312,160.332 284,159.5C 285.771,158.696 287.271,157.529 288.5,156C 286.254,154.743 284.921,152.91 284.5,150.5 Z"/></g>
<g><path style="opacity:1" fill="#dee9e6" d="M 35.5,150.5 C 36.675,150.281 37.675,150.614 38.5,151.5C 36.2372,152.65 33.9038,153.65 31.5,154.5C 33.7067,155.635 36.0401,156.301 38.5,156.5C 38.5,157.5 38.5,158.5 38.5,159.5C 36.1579,159.504 34.1579,160.337 32.5,162C 35.0432,162.14 37.3766,162.806 39.5,164C 35.7887,164.439 32.1221,164.106 28.5,163C 28.0426,162.586 27.7093,162.086 27.5,161.5C 30.0409,160.063 32.7076,158.897 35.5,158C 32.8832,157.178 30.2165,156.678 27.5,156.5C 27.281,155.325 27.6143,154.325 28.5,153.5C 31.0164,152.67 33.3498,151.67 35.5,150.5 Z"/></g>
<g><path style="opacity:0.011" fill="#010101" d="M 315.5,166.5 C 315.833,166.5 316.167,166.5 316.5,166.5C 316.817,170.702 316.483,174.702 315.5,178.5C 315.5,174.5 315.5,170.5 315.5,166.5 Z"/></g>
<g><path style="opacity:1" fill="#e5efec" d="M 33.5,166.5 C 35.604,166.201 37.604,166.534 39.5,167.5C 36.8434,168.259 34.1767,168.926 31.5,169.5C 30.5481,171.045 30.2148,172.712 30.5,174.5C 33.897,173.808 37.2303,173.808 40.5,174.5C 36.575,177.048 32.7417,177.048 29,174.5C 27.7972,170.222 29.2972,167.556 33.5,166.5 Z"/></g>
<g><path style="opacity:1" fill="#e0eae7" d="M 284.5,162.5 C 285.675,162.281 286.675,162.614 287.5,163.5C 283.929,169.439 285.595,171.606 292.5,170C 293.406,168.301 293.739,166.467 293.5,164.5C 292.5,164.5 291.5,164.5 290.5,164.5C 290.649,165.552 290.483,166.552 290,167.5C 289.506,165.866 289.34,164.199 289.5,162.5C 291.199,162.34 292.866,162.506 294.5,163C 296.873,168.624 295.039,171.79 289,172.5C 286.966,172.646 285.299,171.98 284,170.5C 283.398,167.779 283.565,165.113 284.5,162.5 Z"/></g>
<g><path style="opacity:1" fill="#464674" d="M 311.5,144.5 C 312.329,151.655 312.829,158.989 313,166.5C 313.5,159.842 313.666,153.175 313.5,146.5C 314.491,152.979 314.824,159.646 314.5,166.5C 314.5,170.5 314.5,174.5 314.5,178.5C 314.167,178.5 313.833,178.5 313.5,178.5C 312.833,179.5 312.167,180.5 311.5,181.5C 311.649,180.448 311.483,179.448 311,178.5C 310.768,179.737 310.268,180.737 309.5,181.5C 311.136,169.232 311.803,156.898 311.5,144.5 Z"/></g>
<g><path style="opacity:1" fill="#e0ebe8" d="M 284.5,174.5 C 292.523,174.161 294.856,177.495 291.5,184.5C 284.708,186.862 281.541,184.528 282,177.5C 283.045,176.627 283.878,175.627 284.5,174.5 Z"/></g>
<g><path style="opacity:0.017" fill="#020202" d="M 314.5,178.5 C 314.833,178.5 315.167,178.5 315.5,178.5C 315.768,180.099 315.434,181.432 314.5,182.5C 314.5,181.167 314.5,179.833 314.5,178.5 Z"/></g>
<g><path style="opacity:1" fill="#d8e4e0" d="M 35.5,178.5 C 37.5273,178.338 39.5273,178.505 41.5,179C 38.3601,180 37.0268,182.167 37.5,185.5C 39.288,185.215 40.9547,185.548 42.5,186.5C 39.32,187.437 36.1533,188.437 33,189.5C 32.5,189.167 32,188.833 31.5,188.5C 34.5609,187.19 35.8942,184.857 35.5,181.5C 33.4012,182.231 31.4012,182.231 29.5,181.5C 31.2818,180.016 33.2818,179.016 35.5,178.5 Z"/></g>
<g><path style="opacity:0.816" fill="#49495e" d="M 14.5,99.5 C 12.4895,107.208 10.3228,114.875 8,122.5C 7.19549,125.696 7.36216,128.696 8.5,131.5C 8.76781,133.099 8.43448,134.432 7.5,135.5C 7.64945,134.448 7.48278,133.448 7,132.5C 6.07965,135.101 5.41299,137.768 5,140.5C 3.74635,157.312 4.74635,173.979 8,190.5C 11.6547,200.788 15.1547,211.121 18.5,221.5C 15.0656,216.198 12.399,210.531 10.5,204.5C 10.5979,202.447 9.93127,200.78 8.5,199.5C 4.30437,180.406 2.30437,161.072 2.5,141.5C 4.78548,130.072 7.45215,118.738 10.5,107.5C 11.2852,104.596 12.6185,101.93 14.5,99.5 Z"/></g>
<g><path style="opacity:1" fill="#155f42" d="M 284.5,176.5 C 289.712,175.492 291.878,177.492 291,182.5C 285.084,184.416 282.918,182.416 284.5,176.5 Z"/></g>
<g><path style="opacity:0.009" fill="#000000" d="M 313.5,182.5 C 313.833,182.5 314.167,182.5 314.5,182.5C 314.795,184.735 314.461,186.735 313.5,188.5C 313.5,186.5 313.5,184.5 313.5,182.5 Z"/></g>
<g><path style="opacity:0.012" fill="#010101" d="M 312.5,188.5 C 312.833,188.5 313.167,188.5 313.5,188.5C 313.784,190.415 313.451,192.081 312.5,193.5C 312.5,191.833 312.5,190.167 312.5,188.5 Z"/></g>
<g><path style="opacity:1" fill="#e3ecea" d="M 289.5,188.5 C 290.376,188.369 291.043,188.702 291.5,189.5C 290.977,191.933 289.81,193.933 288,195.5C 284.383,194.986 281.216,193.652 278.5,191.5C 281.479,191.247 284.479,191.913 287.5,193.5C 288.562,191.978 289.229,190.312 289.5,188.5 Z"/></g>
<g><path style="opacity:0.013" fill="#010102" d="M 311.5,193.5 C 311.833,193.5 312.167,193.5 312.5,193.5C 312.737,194.791 312.404,195.791 311.5,196.5C 311.5,195.5 311.5,194.5 311.5,193.5 Z"/></g>
<g><path style="opacity:1" fill="#e1ebe8" d="M 32.5,191.5 C 36.5,191.5 40.5,191.5 44.5,191.5C 43.0048,195.839 40.1715,199.173 36,201.5C 36.3333,199.5 36.6667,197.5 37,195.5C 35.3015,194.259 33.8015,192.926 32.5,191.5 Z"/></g>
<g><path style="opacity:1" fill="#186346" d="M 38.5,193.5 C 41.7973,193.329 42.1306,193.995 39.5,195.5C 38.7025,195.043 38.3691,194.376 38.5,193.5 Z"/></g>
<g><path style="opacity:0.922" fill="#48495d" d="M 313.5,178.5 C 313.5,179.833 313.5,181.167 313.5,182.5C 312.539,184.265 312.205,186.265 312.5,188.5C 311.549,189.919 311.216,191.585 311.5,193.5C 310.596,194.209 310.263,195.209 310.5,196.5C 309.566,197.568 309.232,198.901 309.5,200.5C 308.833,201.167 308.167,201.833 307.5,202.5C 308.835,195.491 310.169,188.491 311.5,181.5C 312.167,180.5 312.833,179.5 313.5,178.5 Z"/></g>
<g><path style="opacity:1" fill="#dae6e2" d="M 278.5,195.5 C 287.819,195.658 289.819,199.492 284.5,207C 279.289,208.232 276.289,206.232 275.5,201C 275.863,198.808 276.863,196.974 278.5,195.5 Z"/></g>
<g><path style="opacity:0.01" fill="#010101" d="M 310.5,196.5 C 310.833,196.5 311.167,196.5 311.5,196.5C 311.768,198.099 311.434,199.432 310.5,200.5C 310.5,199.167 310.5,197.833 310.5,196.5 Z"/></g>
<g><path style="opacity:0.994" fill="#373771" d="M 7.5,135.5 C 4.32193,166.259 9.32193,195.593 22.5,223.5C 22.6495,224.552 22.4828,225.552 22,226.5C 20.8111,224.767 19.6444,223.1 18.5,221.5C 15.1547,211.121 11.6547,200.788 8,190.5C 4.74635,173.979 3.74635,157.312 5,140.5C 5.41299,137.768 6.07965,135.101 7,132.5C 7.48278,133.448 7.64945,134.448 7.5,135.5 Z"/></g>
<g><path style="opacity:0.014" fill="#020202" d="M 8.5,199.5 C 8.63101,200.239 8.46434,200.906 8,201.5C 7.30831,200.563 7.47498,199.897 8.5,199.5 Z"/></g>
<g><path style="opacity:1" fill="#166143" d="M 279.5,197.5 C 285.501,197.741 286.834,200.241 283.5,205C 277.392,205.078 276.059,202.578 279.5,197.5 Z"/></g>
<g><path style="opacity:0.018" fill="#020302" d="M 309.5,200.5 C 309.833,200.5 310.167,200.5 310.5,200.5C 310.167,203.167 309.833,203.167 309.5,200.5 Z"/></g>
<g><path style="opacity:0.008" fill="#000101" d="M 10.5,204.5 C 10.3015,209.564 9.63486,209.397 8.5,204C 8.66667,203.5 8.83333,203 9,202.5C 9.27842,203.416 9.77842,204.082 10.5,204.5 Z"/></g>
<g><path style="opacity:0.008" fill="#000101" d="M 308.5,206.5 C 308.351,205.448 308.517,204.448 309,203.5C 309.74,204.749 309.573,205.749 308.5,206.5 Z"/></g>
<g><path style="opacity:0.984" fill="#383670" d="M 311.5,181.5 C 310.169,188.491 308.835,195.491 307.5,202.5C 307.5,203.167 307.5,203.833 307.5,204.5C 306.25,204.577 305.417,205.244 305,206.5C 303.857,209.777 303.023,213.11 302.5,216.5C 302.5,216.833 302.5,217.167 302.5,217.5C 301.141,218.007 300.141,219.007 299.5,220.5C 298.702,220.043 298.369,219.376 298.5,218.5C 303.801,206.668 307.468,194.335 309.5,181.5C 310.268,180.737 310.768,179.737 311,178.5C 311.483,179.448 311.649,180.448 311.5,181.5 Z"/></g>
<g><path style="opacity:0.01" fill="#010101" d="M 307.5,206.5 C 307.833,206.5 308.167,206.5 308.5,206.5C 308.737,207.791 308.404,208.791 307.5,209.5C 307.5,208.5 307.5,207.5 307.5,206.5 Z"/></g>
<g><path style="opacity:1" fill="#e3ece9" d="M 45.5,198.5 C 46.4972,198.47 47.1639,198.97 47.5,200C 46.09,202.818 44.4234,205.485 42.5,208C 44.8463,207.921 47.013,207.088 49,205.5C 49.5,206 50,206.5 50.5,207C 47.0591,209.054 43.3924,210.554 39.5,211.5C 40.2737,208.619 41.6071,205.952 43.5,203.5C 43.1667,203.167 42.8333,202.833 42.5,202.5C 40.6687,203.929 38.6687,204.429 36.5,204C 39.5638,202.141 42.5638,200.308 45.5,198.5 Z"/></g>
<g><path style="opacity:1" fill="#e4eeeb" d="M 273.5,206.5 C 277.09,207.628 280.423,209.295 283.5,211.5C 283.291,212.086 282.957,212.586 282.5,213C 279.774,213.182 277.107,213.682 274.5,214.5C 276.287,215.316 277.954,216.316 279.5,217.5C 280.833,218.167 280.833,218.833 279.5,219.5C 276.006,217.921 272.673,216.087 269.5,214C 272.66,212.629 275.994,211.629 279.5,211C 276.823,210.186 274.823,208.686 273.5,206.5 Z"/></g>
<g><path style="opacity:0.01" fill="#020202" d="M 306.5,209.5 C 306.833,209.5 307.167,209.5 307.5,209.5C 307.672,210.492 307.338,211.158 306.5,211.5C 306.5,210.833 306.5,210.167 306.5,209.5 Z"/></g>
<g><path style="opacity:0.008" fill="#000001" d="M 305.5,211.5 C 305.833,211.5 306.167,211.5 306.5,211.5C 306.737,212.791 306.404,213.791 305.5,214.5C 305.5,213.5 305.5,212.5 305.5,211.5 Z"/></g>
<g><path style="opacity:0.765" fill="#44465c" d="M 307.5,204.5 C 307.5,205.167 307.5,205.833 307.5,206.5C 306.596,207.209 306.263,208.209 306.5,209.5C 305.662,209.842 305.328,210.508 305.5,211.5C 304.596,212.209 304.263,213.209 304.5,214.5C 303.662,214.842 303.328,215.508 303.5,216.5C 303.167,216.5 302.833,216.5 302.5,216.5C 303.023,213.11 303.857,209.777 305,206.5C 305.417,205.244 306.25,204.577 307.5,204.5 Z"/></g>
<g><path style="opacity:0.012" fill="#010202" d="M 304.5,214.5 C 304.833,214.5 305.167,214.5 305.5,214.5C 305.672,215.492 305.338,216.158 304.5,216.5C 304.5,215.833 304.5,215.167 304.5,214.5 Z"/></g>
<g><path style="opacity:0.008" fill="#000100" d="M 303.5,216.5 C 303.833,216.5 304.167,216.5 304.5,216.5C 304.672,217.492 304.338,218.158 303.5,218.5C 303.5,217.833 303.5,217.167 303.5,216.5 Z"/></g>
<g><path style="opacity:1" fill="#e2ece9" d="M 268.5,216.5 C 272.109,217.974 275.443,219.974 278.5,222.5C 276.378,222.377 274.211,222.377 272,222.5C 271.5,223.5 271,224.5 270.5,225.5C 271.833,226.5 273.167,227.5 274.5,228.5C 274,228.833 273.5,229.167 273,229.5C 269.707,228.108 266.874,226.108 264.5,223.5C 264.833,223.167 265.167,222.833 265.5,222.5C 266.5,223.167 267.5,223.833 268.5,224.5C 269.333,223.5 270.167,222.5 271,221.5C 270.26,219.949 269.427,218.283 268.5,216.5 Z"/></g>
<g><path style="opacity:0.009" fill="#010101" d="M 302.5,218.5 C 302.833,218.5 303.167,218.5 303.5,218.5C 303.737,219.791 303.404,220.791 302.5,221.5C 302.5,220.5 302.5,219.5 302.5,218.5 Z"/></g>
<g><path style="opacity:1" fill="#454464" d="M 302.5,217.5 C 302.5,217.833 302.5,218.167 302.5,218.5C 301.596,219.209 301.263,220.209 301.5,221.5C 300.662,221.842 300.328,222.508 300.5,223.5C 299.662,223.842 299.328,224.508 299.5,225.5C 298.662,225.842 298.328,226.508 298.5,227.5C 297.662,227.842 297.328,228.508 297.5,229.5C 296.833,229.5 296.5,229.833 296.5,230.5C 296.167,230.5 295.833,230.5 295.5,230.5C 295.682,228.325 296.349,226.325 297.5,224.5C 297.457,223.584 297.124,222.917 296.5,222.5C 296.66,220.847 297.326,219.514 298.5,218.5C 298.369,219.376 298.702,220.043 299.5,220.5C 300.141,219.007 301.141,218.007 302.5,217.5 Z"/></g>
<g><path style="opacity:1" fill="#e2ece9" d="M 51.5,212.5 C 53.0281,212.517 53.5281,213.184 53,214.5C 50.913,215.794 48.7463,216.961 46.5,218C 44.9372,220.476 45.6038,221.976 48.5,222.5C 50.9443,221.778 53.2777,220.778 55.5,219.5C 55.8333,219.833 56.1667,220.167 56.5,220.5C 53.5527,223.951 49.8861,225.118 45.5,224C 43.9644,222.401 43.4644,220.567 44,218.5C 46.1141,215.879 48.6141,213.879 51.5,212.5 Z"/></g>
<g><path style="opacity:0.02" fill="#020303" d="M 301.5,221.5 C 301.833,221.5 302.167,221.5 302.5,221.5C 302.315,222.17 301.981,222.17 301.5,221.5 Z"/></g>
<g><path style="opacity:1" fill="#dee9e6" d="M 56.5,222.5 C 57.5862,222.62 58.2528,223.287 58.5,224.5C 57.7783,226.944 56.7783,229.278 55.5,231.5C 55.8333,231.833 56.1667,232.167 56.5,232.5C 57.9814,231.52 59.3147,230.353 60.5,229C 61.3317,228.312 61.9984,228.479 62.5,229.5C 59.8103,232.185 56.8103,234.518 53.5,236.5C 53.1667,236 52.8333,235.5 52.5,235C 53.5767,232.117 54.41,229.283 55,226.5C 53.0005,228.597 50.8338,229.597 48.5,229.5C 51.1864,227.144 53.853,224.811 56.5,222.5 Z"/></g>
<g><path style="opacity:1" fill="#d2d5d4" d="M 150.5,56.5 C 196.753,55.6083 230.753,75.275 252.5,115.5C 269.571,159.589 261.571,198.423 228.5,232C 196.445,258.201 160.779,264.534 121.5,251C 76.0728,229.665 55.2395,193.832 59,143.5C 69.8999,93.7643 100.4,64.7643 150.5,56.5 Z"/></g>
<g><path style="opacity:1" fill="#393c71" d="M 144.5,59.5 C 187.67,55.9138 221.17,71.9138 245,107.5C 264.227,144.173 262.56,179.84 240,214.5C 219.519,240.908 192.519,254.574 159,255.5C 116.325,253.479 85.9918,233.146 68,194.5C 51.1358,143.759 64.6358,103.259 108.5,73C 119.912,66.5894 131.912,62.0894 144.5,59.5 Z"/></g>
<g><path style="opacity:1" fill="#fcfefd" d="M 217.5,209.5 C 179.692,238.342 140.025,240.842 98.5,217C 93.328,213.915 88.328,210.581 83.5,207C 90.745,208.305 98.0784,209.638 105.5,211C 124.598,214.065 142.598,211.065 159.5,202C 160.381,201.292 161.047,200.458 161.5,199.5C 167.813,195.352 172.98,190.019 177,183.5C 181.616,174.262 185.116,164.595 187.5,154.5C 193.907,162.741 202.24,165.907 212.5,164C 227.327,160.677 239.494,153.177 249,141.5C 244.361,166.934 233.861,189.601 217.5,209.5 Z"/></g>
<g><path style="opacity:1" fill="#94c4d5" d="M 223.5,86.5 C 247.663,108.414 258.163,135.747 255,168.5C 252.951,185.583 246.784,200.917 236.5,214.5C 235.25,214.423 234.417,213.756 234,212.5C 232.326,213.676 230.826,215.01 229.5,216.5C 229.167,216 228.833,215.5 228.5,215C 231.163,212.643 230.996,210.477 228,208.5C 227.51,207.207 227.343,205.873 227.5,204.5C 226.127,204.343 224.793,204.51 223.5,205C 222.015,207.237 220.015,208.737 217.5,209.5C 233.861,189.601 244.361,166.934 249,141.5C 239.494,153.177 227.327,160.677 212.5,164C 202.24,165.907 193.907,162.741 187.5,154.5C 185.116,164.595 181.616,174.262 177,183.5C 172.98,190.019 167.813,195.352 161.5,199.5C 144.55,180.1 143.05,159.434 157,137.5C 161.183,131.138 165.85,125.138 171,119.5C 184.359,106.802 198.859,95.6354 214.5,86C 211.493,85.6987 208.493,85.8654 205.5,86.5C 207.116,85.0108 209.116,84.0108 211.5,83.5C 210.5,82.6667 209.5,81.8333 208.5,81C 213.852,80.6472 217.185,82.9805 218.5,88C 215.488,89.2063 212.488,90.5397 209.5,92C 215.061,92.2064 219.728,90.373 223.5,86.5 Z"/></g>
<g><path style="opacity:1" fill="#fdfefe" d="M 205.5,86.5 C 208.493,85.8654 211.493,85.6987 214.5,86C 198.859,95.6354 184.359,106.802 171,119.5C 165.85,125.138 161.183,131.138 157,137.5C 143.05,159.434 144.55,180.1 161.5,199.5C 144.028,196.186 130.862,186.852 122,171.5C 111.174,152.532 108.84,132.532 115,111.5C 119.121,97.5933 125.121,84.5933 133,72.5C 141.69,80.4287 151.856,85.5953 163.5,88C 175.5,88.6667 187.5,88.6667 199.5,88C 201.708,87.8091 203.708,87.3091 205.5,86.5 Z"/></g>
<g><path style="opacity:1" fill="#94c4d5" d="M 223.5,86.5 C 219.728,90.373 215.061,92.2064 209.5,92C 212.488,90.5397 215.488,89.2063 218.5,88C 217.185,82.9805 213.852,80.6472 208.5,81C 209.5,81.8333 210.5,82.6667 211.5,83.5C 209.116,84.0108 207.116,85.0108 205.5,86.5C 203.708,87.3091 201.708,87.8091 199.5,88C 187.5,88.6667 175.5,88.6667 163.5,88C 151.856,85.5953 141.69,80.4287 133,72.5C 125.121,84.5933 119.121,97.5933 115,111.5C 108.84,132.532 111.174,152.532 122,171.5C 130.862,186.852 144.028,196.186 161.5,199.5C 161.047,200.458 160.381,201.292 159.5,202C 142.598,211.065 124.598,214.065 105.5,211C 98.0784,209.638 90.745,208.305 83.5,207C 88.328,210.581 93.328,213.915 98.5,217C 140.025,240.842 179.692,238.342 217.5,209.5C 220.015,208.737 222.015,207.237 223.5,205C 224.793,204.51 226.127,204.343 227.5,204.5C 227.343,205.873 227.51,207.207 228,208.5C 230.996,210.477 231.163,212.643 228.5,215C 228.833,215.5 229.167,216 229.5,216.5C 230.826,215.01 232.326,213.676 234,212.5C 234.417,213.756 235.25,214.423 236.5,214.5C 211.585,244.647 179.585,256.814 140.5,251C 97.4806,240.313 71.9806,213.146 64,169.5C 60.7725,126.117 77.9392,93.6175 115.5,72C 149.285,56.57 181.952,58.57 213.5,78C 217.025,80.698 220.358,83.5314 223.5,86.5 Z"/></g>
<g><path style="opacity:0.01" fill="#000100" d="M 300.5,223.5 C 301.833,224.167 301.833,224.833 300.5,225.5C 300.5,224.833 300.5,224.167 300.5,223.5 Z"/></g>
<g><path style="opacity:0.016" fill="#020302" d="M 299.5,225.5 C 299.833,225.5 300.167,225.5 300.5,225.5C 300.315,226.17 299.981,226.17 299.5,225.5 Z"/></g>
<g><path style="opacity:0.984" fill="#464760" d="M 18.5,221.5 C 19.6444,223.1 20.8111,224.767 22,226.5C 22.4828,225.552 22.6495,224.552 22.5,223.5C 24.0075,225.181 25.0075,227.181 25.5,229.5C 24.6365,228.537 23.9698,228.537 23.5,229.5C 26.524,234.888 29.524,240.221 32.5,245.5C 31.5416,245.047 30.7083,244.381 30,243.5C 28.3335,244.34 28.1669,243.84 29.5,242C 28.3636,240.855 27.3636,239.688 26.5,238.5C 25.6403,235.223 23.9737,233.223 21.5,232.5C 21.7093,231.914 22.0426,231.414 22.5,231C 20.485,228.135 19.1516,224.968 18.5,221.5 Z"/></g>
<g><path style="opacity:0.01" fill="#010201" d="M 298.5,227.5 C 299.833,228.167 299.833,228.833 298.5,229.5C 298.5,228.833 298.5,228.167 298.5,227.5 Z"/></g>
<g><path style="opacity:0.008" fill="#000100" d="M 297.5,229.5 C 297.833,229.5 298.167,229.5 298.5,229.5C 298.315,230.17 297.981,230.17 297.5,229.5 Z"/></g>
<g><path style="opacity:1" fill="#ddeae6" d="M 261.5,227.5 C 266.539,227.451 266.705,228.118 262,229.5C 260.67,234.498 262.504,236.664 267.5,236C 268.103,234.175 268.77,232.341 269.5,230.5C 271.535,236.967 269.202,239.467 262.5,238C 258.935,234.784 258.602,231.284 261.5,227.5 Z"/></g>
<g><path style="opacity:0.014" fill="#010102" d="M 296.5,230.5 C 296.833,230.5 297.167,230.5 297.5,230.5C 297.672,231.492 297.338,232.158 296.5,232.5C 296.5,231.833 296.5,231.167 296.5,230.5 Z"/></g>
<g><path style="opacity:1" fill="#373670" d="M 296.5,222.5 C 297.124,222.917 297.457,223.584 297.5,224.5C 296.349,226.325 295.682,228.325 295.5,230.5C 294.017,232.094 292.517,233.76 291,235.5C 290.536,234.906 290.369,234.239 290.5,233.5C 292.262,229.638 294.262,225.972 296.5,222.5 Z"/></g>
<g><path style="opacity:0.008" fill="#000101" d="M 295.5,232.5 C 295.833,232.5 296.167,232.5 296.5,232.5C 296.672,233.492 296.338,234.158 295.5,234.5C 295.5,233.833 295.5,233.167 295.5,232.5 Z"/></g>
<g><path style="opacity:0.008" fill="#010101" d="M 294.5,234.5 C 294.833,234.5 295.167,234.5 295.5,234.5C 295.672,235.492 295.338,236.158 294.5,236.5C 294.5,235.833 294.5,235.167 294.5,234.5 Z"/></g>
<g><path style="opacity:0.004" fill="#000100" d="M 293.5,236.5 C 293.833,236.5 294.167,236.5 294.5,236.5C 294.315,237.17 293.981,237.17 293.5,236.5 Z"/></g>
<g><path style="opacity:0.01" fill="#010101" d="M 292.5,237.5 C 292.833,237.5 293.167,237.5 293.5,237.5C 293.672,238.492 293.338,239.158 292.5,239.5C 292.5,238.833 292.5,238.167 292.5,237.5 Z"/></g>
<g><path style="opacity:0.016" fill="#000102" d="M 26.5,238.5 C 25.8333,239.167 25.8333,239.167 26.5,238.5 Z"/></g>
<g><path style="opacity:1" fill="#dde8e5" d="M 65.5,234.5 C 62.5178,236.474 59.5178,238.474 56.5,240.5C 57.6425,237.497 59.9758,234.997 63.5,233C 64.816,232.472 65.4827,232.972 65.5,234.5 Z"/></g>
<g><path style="opacity:0.996" fill="#37386f" d="M 25.5,229.5 C 28.4864,234.13 31.4864,238.797 34.5,243.5C 34.5,244.833 33.8333,245.5 32.5,245.5C 29.524,240.221 26.524,234.888 23.5,229.5C 23.9698,228.537 24.6365,228.537 25.5,229.5 Z"/></g>
<g><path style="opacity:0.008" fill="#000102" d="M 291.5,239.5 C 291.833,239.5 292.167,239.5 292.5,239.5C 292.315,240.17 291.981,240.17 291.5,239.5 Z"/></g>
<g><path style="opacity:0.016" fill="#000000" d="M 290.5,240.5 C 290.833,240.5 291.167,240.5 291.5,240.5C 291.315,241.17 290.981,241.17 290.5,240.5 Z"/></g>
<g><path style="opacity:1" fill="#deeae6" d="M 65.5,234.5 C 66.2891,234.783 66.9558,235.283 67.5,236C 65.3658,238.699 64.3658,241.533 64.5,244.5C 66.861,242.545 69.5276,241.712 72.5,242C 68.9448,245.134 64.9448,246.301 60.5,245.5C 62.4526,241.931 64.1192,238.264 65.5,234.5 Z"/></g>
<g><path style="opacity:1" fill="#dde9e5" d="M 255.5,235.5 C 256.239,235.369 256.906,235.536 257.5,236C 256.547,237.955 255.213,239.622 253.5,241C 254.275,242.23 255.275,242.563 256.5,242C 257.618,240.926 258.618,239.76 259.5,238.5C 259.833,238.833 260.167,239.167 260.5,239.5C 259.248,241.001 258.248,242.668 257.5,244.5C 258,244.833 258.5,245.167 259,245.5C 260.944,244.561 262.611,243.227 264,241.5C 264.027,244.671 262.527,247.004 259.5,248.5C 256.015,246.847 253.348,244.347 251.5,241C 252.65,239.019 253.984,237.186 255.5,235.5 Z"/></g>
<g><path style="opacity:0.016" fill="#020302" d="M 288.5,243.5 C 288.833,243.5 289.167,243.5 289.5,243.5C 289.315,244.17 288.981,244.17 288.5,243.5 Z"/></g>
<g><path style="opacity:0.01" fill="#000001" d="M 287.5,244.5 C 287.833,244.5 288.167,244.5 288.5,244.5C 288.672,245.492 288.338,246.158 287.5,246.5C 287.5,245.833 287.5,245.167 287.5,244.5 Z"/></g>
<g><path style="opacity:1" fill="#3f4063" d="M 34.5,243.5 C 35.803,245.142 37.1363,246.809 38.5,248.5C 37.6236,248.369 36.9569,248.702 36.5,249.5C 37.9524,250.94 38.9524,252.606 39.5,254.5C 37.8268,252.538 35.9935,251.538 34,251.5C 33.3828,250.551 33.5494,249.718 34.5,249C 33.1772,248.184 32.5106,247.017 32.5,245.5C 33.8333,245.5 34.5,244.833 34.5,243.5 Z"/></g>
<g><path style="opacity:0.012" fill="#030403" d="M 286.5,246.5 C 286.833,246.5 287.167,246.5 287.5,246.5C 287.315,247.17 286.981,247.17 286.5,246.5 Z"/></g>
<g><path style="opacity:1" fill="#e3edea" d="M 73.5,243.5 C 76.3948,245.202 78.2281,247.536 79,250.5C 77.5784,248.362 75.745,247.195 73.5,247C 73.0426,247.414 72.7093,247.914 72.5,248.5C 73.7598,249.382 74.9264,250.382 76,251.5C 76.6877,252.332 76.521,252.998 75.5,253.5C 73.8513,252.352 72.3513,251.019 71,249.5C 68.9089,252.652 69.7422,254.985 73.5,256.5C 73.1667,256.833 72.8333,257.167 72.5,257.5C 70.1667,255.833 68.1667,253.833 66.5,251.5C 68.8558,248.814 71.1891,246.147 73.5,243.5 Z"/></g>
<g><path style="opacity:0.012" fill="#000001" d="M 285.5,247.5 C 285.833,247.5 286.167,247.5 286.5,247.5C 286.315,248.17 285.981,248.17 285.5,247.5 Z"/></g>
<g><path style="opacity:0.014" fill="#010202" d="M 284.5,248.5 C 284.833,248.5 285.167,248.5 285.5,248.5C 285.672,249.492 285.338,250.158 284.5,250.5C 284.5,249.833 284.5,249.167 284.5,248.5 Z"/></g>
<g><path style="opacity:0.008" fill="#000100" d="M 283.5,250.5 C 283.833,250.5 284.167,250.5 284.5,250.5C 284.315,251.17 283.981,251.17 283.5,250.5 Z"/></g>
<g><path style="opacity:0.009" fill="#040505" d="M 282.5,251.5 C 282.833,251.5 283.167,251.5 283.5,251.5C 283.573,253.027 282.906,254.027 281.5,254.5C 281.5,253.833 281.167,253.5 280.5,253.5C 280.5,252.833 280.833,252.5 281.5,252.5C 282.167,252.5 282.5,252.167 282.5,251.5 Z"/></g>
<g><path style="opacity:1" fill="#d9e7e3" d="M 249.5,242.5 C 249.929,243.953 250.096,245.619 250,247.5C 251.667,249.167 253.333,250.833 255,252.5C 255.688,253.332 255.521,253.998 254.5,254.5C 252.35,252.851 250.35,251.018 248.5,249C 246.874,249.195 245.207,249.195 243.5,249C 245.706,246.963 247.706,244.797 249.5,242.5 Z"/></g>
<g><path style="opacity:1" fill="#dae7e3" d="M 80.5,250.5 C 83.6081,251.773 85.9414,253.939 87.5,257C 86.7935,259.54 85.1268,260.707 82.5,260.5C 82.7989,262.604 82.4656,264.604 81.5,266.5C 80.6816,263.893 80.1816,261.226 80,258.5C 79.6667,258.167 79.3333,257.833 79,257.5C 77.8293,259.616 76.3293,260.282 74.5,259.5C 76.7686,256.615 78.7686,253.615 80.5,250.5 Z"/></g>
<g><path style="opacity:0.009" fill="#050505" d="M 280.5,253.5 C 281.167,253.5 281.5,253.833 281.5,254.5C 281.167,255.5 280.5,256.167 279.5,256.5C 279.5,255.833 279.167,255.5 278.5,255.5C 278.833,254.5 279.5,253.833 280.5,253.5 Z"/></g>
<g><path style="opacity:0.007" fill="#050505" d="M 39.5,255.5 C 40.5,255.833 41.1667,256.5 41.5,257.5C 39.1667,258.5 38.5,257.833 39.5,255.5 Z"/></g>
<g><path style="opacity:1" fill="#165c40" d="M 81.5,253.5 C 83.7914,254.542 84.7914,256.042 84.5,258C 81.2732,257.944 80.2732,256.444 81.5,253.5 Z"/></g>
<g><path style="opacity:0.016" fill="#010201" d="M 278.5,256.5 C 278.833,256.5 279.167,256.5 279.5,256.5C 279.315,257.17 278.981,257.17 278.5,256.5 Z"/></g>
<g><path style="opacity:0.008" fill="#020302" d="M 277.5,257.5 C 277.833,257.5 278.167,257.5 278.5,257.5C 278.315,258.17 277.981,258.17 277.5,257.5 Z"/></g>
<g><path style="opacity:0.02" fill="#020303" d="M 276.5,258.5 C 276.833,258.5 277.167,258.5 277.5,258.5C 277.315,259.17 276.981,259.17 276.5,258.5 Z"/></g>
<g><path style="opacity:0.4" fill="#5b5b70" d="M 41.5,257.5 C 46.774,261.105 51.4407,265.438 55.5,270.5C 55.1667,270.5 54.8333,270.5 54.5,270.5C 49.8333,266.5 45.5,262.167 41.5,257.5 Z"/></g>
<g><path style="opacity:0.02" fill="#010201" d="M 275.5,259.5 C 275.833,259.5 276.167,259.5 276.5,259.5C 276.315,260.17 275.981,260.17 275.5,259.5 Z"/></g>
<g><path style="opacity:0.02" fill="#010202" d="M 274.5,260.5 C 274.833,260.5 275.167,260.5 275.5,260.5C 275.315,261.17 274.981,261.17 274.5,260.5 Z"/></g>
<g><path style="opacity:1" fill="#37356e" d="M 38.5,248.5 C 46.8605,258.86 56.1938,268.194 66.5,276.5C 66.44,277.043 66.1067,277.376 65.5,277.5C 62.4645,275.448 59.4645,273.448 56.5,271.5C 55.8333,271.5 55.5,271.167 55.5,270.5C 51.4407,265.438 46.774,261.105 41.5,257.5C 41.1667,256.5 40.5,255.833 39.5,255.5C 39.5,255.167 39.5,254.833 39.5,254.5C 38.9524,252.606 37.9524,250.94 36.5,249.5C 36.9569,248.702 37.6236,248.369 38.5,248.5 Z"/></g>
<g><path style="opacity:0.016" fill="#010202" d="M 273.5,261.5 C 273.833,261.5 274.167,261.5 274.5,261.5C 274.672,262.492 274.338,263.158 273.5,263.5C 273.5,262.833 273.5,262.167 273.5,261.5 Z"/></g>
<g><path style="opacity:1" fill="#dce8e5" d="M 230.5,258.5 C 233.314,261.171 235.647,264.337 237.5,268C 237.167,268.5 236.833,269 236.5,269.5C 234.085,268.695 231.751,267.695 229.5,266.5C 229.167,266.833 228.833,267.167 228.5,267.5C 230.441,269.316 231.108,271.316 230.5,273.5C 227.347,270.218 225.68,266.551 225.5,262.5C 227.972,264.251 230.639,265.085 233.5,265C 231.781,263.13 230.781,260.963 230.5,258.5 Z"/></g>
<g><path style="opacity:1" fill="#e0ebe8" d="M 237.5,253.5 C 243.82,253.32 246.32,256.32 245,262.5C 243.649,264.019 242.149,265.352 240.5,266.5C 237.925,263.681 235.592,260.681 233.5,257.5C 234.867,256.16 236.2,254.827 237.5,253.5 Z"/></g>
<g><path style="opacity:1" fill="#196145" d="M 237.5,255.5 C 242.984,255.481 244.65,257.981 242.5,263C 238.217,262.221 236.551,259.721 237.5,255.5 Z"/></g>
<g><path style="opacity:0.004" fill="#000001" d="M 272.5,263.5 C 272.833,263.5 273.167,263.5 273.5,263.5C 273.315,264.17 272.981,264.17 272.5,263.5 Z"/></g>
<g><path style="opacity:0.039" fill="#585951" d="M 271.5,264.5 C 271.833,264.5 272.167,264.5 272.5,264.5C 272.315,265.17 271.981,265.17 271.5,264.5 Z"/></g>
<g><path style="opacity:0.01" fill="#0f1011" d="M 270.5,264.5 C 270.5,265.167 270.833,265.5 271.5,265.5C 270.415,267.587 268.749,268.92 266.5,269.5C 266.5,269.167 266.5,268.833 266.5,268.5C 267.833,268.167 267.833,267.833 266.5,267.5C 266.842,266.662 267.508,266.328 268.5,266.5C 269.167,266.5 269.5,266.167 269.5,265.5C 269.5,264.833 269.833,264.5 270.5,264.5 Z"/></g>
<g><path style="opacity:0.996" fill="#413f6c" d="M 295.5,230.5 C 295.5,231.167 295.5,231.833 295.5,232.5C 294.662,232.842 294.328,233.508 294.5,234.5C 293.662,234.842 293.328,235.508 293.5,236.5C 292.833,236.5 292.5,236.833 292.5,237.5C 291.662,237.842 291.328,238.508 291.5,239.5C 290.833,239.5 290.5,239.833 290.5,240.5C 289.167,240.833 289.167,241.167 290.5,241.5C 290.672,242.492 290.338,243.158 289.5,243.5C 289.167,242.167 288.833,242.167 288.5,243.5C 287.833,243.5 287.5,243.833 287.5,244.5C 286.662,244.842 286.328,245.508 286.5,246.5C 285.833,246.5 285.5,246.833 285.5,247.5C 284.833,247.5 284.5,247.833 284.5,248.5C 283.662,248.842 283.328,249.508 283.5,250.5C 282.833,250.5 282.5,250.833 282.5,251.5C 281.833,251.5 281.5,251.833 281.5,252.5C 280.833,252.5 280.5,252.833 280.5,253.5C 279.5,253.833 278.833,254.5 278.5,255.5C 278.5,255.833 278.5,256.167 278.5,256.5C 277.833,256.5 277.5,256.833 277.5,257.5C 276.833,257.5 276.5,257.833 276.5,258.5C 275.833,258.5 275.5,258.833 275.5,259.5C 274.833,259.5 274.5,259.833 274.5,260.5C 273.833,260.5 273.5,260.833 273.5,261.5C 272.662,261.842 272.328,262.508 272.5,263.5C 271.833,263.5 271.5,263.833 271.5,264.5C 271.167,264.5 270.833,264.5 270.5,264.5C 269.833,264.5 269.5,264.833 269.5,265.5C 268.833,265.5 268.5,265.833 268.5,266.5C 267.508,266.328 266.842,266.662 266.5,267.5C 266.5,267.833 266.5,268.167 266.5,268.5C 265.833,268.5 265.5,268.833 265.5,269.5C 264.833,269.5 264.5,269.833 264.5,270.5C 263.833,270.5 263.5,270.833 263.5,271.5C 262.833,271.5 262.5,271.833 262.5,272.5C 261.833,272.5 261.5,272.833 261.5,273.5C 261.167,273.5 260.833,273.5 260.5,273.5C 259.5,273.833 258.833,274.5 258.5,275.5C 257.833,275.5 257.5,275.833 257.5,276.5C 256.833,276.5 256.5,276.833 256.5,277.5C 256.167,277.5 255.833,277.5 255.5,277.5C 254.508,277.328 253.842,277.662 253.5,278.5C 251.956,278.703 250.622,279.37 249.5,280.5C 248.702,280.043 248.369,279.376 248.5,278.5C 265.295,266.04 279.295,251.04 290.5,233.5C 290.369,234.239 290.536,234.906 291,235.5C 292.517,233.76 294.017,232.094 295.5,230.5 Z"/></g>
<g><path style="opacity:1" fill="#d7e4e0" d="M 101.5,265.5 C 104.447,266.973 107.447,268.473 110.5,270C 112.155,271.444 112.822,273.278 112.5,275.5C 114.816,274.64 117.149,274.14 119.5,274C 115.634,276.365 112.634,279.532 110.5,283.5C 110.249,279.63 110.249,275.63 110.5,271.5C 108.774,271.185 107.107,271.019 105.5,271C 100.082,281.088 99.4155,280.754 103.5,270C 102.586,268.594 101.92,267.094 101.5,265.5 Z"/></g>
<g><path style="opacity:1" fill="#dae6e2" d="M 88.5,259.5 C 93.7144,258.711 95.7144,260.711 94.5,265.5C 93.7717,263.807 92.7717,262.307 91.5,261C 90.6683,260.312 90.0016,260.479 89.5,261.5C 90.771,263.585 91.771,265.752 92.5,268C 92.2334,271.164 90.5667,272.164 87.5,271C 84.7265,269.395 84.0598,267.228 85.5,264.5C 86.2283,266.193 87.2283,267.693 88.5,269C 89.4835,269.591 90.1501,269.257 90.5,268C 88.1133,265.447 87.4466,262.614 88.5,259.5 Z"/></g>
<g><path style="opacity:1" fill="#dde9e6" d="M 98.5,264.5 C 99.2389,264.369 99.9056,264.536 100.5,265C 98.8749,268.42 96.8749,271.587 94.5,274.5C 94.6042,270.917 95.9375,267.583 98.5,264.5 Z"/></g>
<g><path style="opacity:0.024" fill="#010202" d="M 265.5,269.5 C 265.833,269.5 266.167,269.5 266.5,269.5C 266.315,270.17 265.981,270.17 265.5,269.5 Z"/></g>
<g><path style="opacity:0.01" fill="#020202" d="M 54.5,270.5 C 54.8333,270.5 55.1667,270.5 55.5,270.5C 55.5,271.167 55.8333,271.5 56.5,271.5C 56.8333,272.167 57.1667,272.833 57.5,273.5C 57.5,274.167 57.8333,274.5 58.5,274.5C 58.1034,275.525 57.4368,275.692 56.5,275C 54.3498,273.808 53.6832,272.308 54.5,270.5 Z"/></g>
<g><path style="opacity:1" fill="#d5e3df" d="M 218.5,266.5 C 222.541,268.199 225.874,270.866 228.5,274.5C 228.167,274.833 227.833,275.167 227.5,275.5C 222.949,272.34 220.616,273.673 220.5,279.5C 218.815,275.345 218.149,271.012 218.5,266.5 Z"/></g>
<g><path style="opacity:0.016" fill="#010202" d="M 264.5,270.5 C 264.833,270.5 265.167,270.5 265.5,270.5C 265.315,271.17 264.981,271.17 264.5,270.5 Z"/></g>
<g><path style="opacity:1" fill="#22674a" d="M 220.5,270.5 C 222.337,270.639 222.67,271.306 221.5,272.5C 220.702,272.043 220.369,271.376 220.5,270.5 Z"/></g>
<g><path style="opacity:0.02" fill="#020303" d="M 263.5,271.5 C 263.833,271.5 264.167,271.5 264.5,271.5C 264.315,272.17 263.981,272.17 263.5,271.5 Z"/></g>
<g><path style="opacity:0.016" fill="#020303" d="M 262.5,272.5 C 262.833,272.5 263.167,272.5 263.5,272.5C 263.315,273.17 262.981,273.17 262.5,272.5 Z"/></g>
<g><path style="opacity:0.011" fill="#020202" d="M 260.5,273.5 C 260.5,274.167 260.833,274.5 261.5,274.5C 260.738,276.262 259.404,277.262 257.5,277.5C 257.5,277.167 257.5,276.833 257.5,276.5C 258.167,276.5 258.5,276.167 258.5,275.5C 258.833,274.5 259.5,273.833 260.5,273.5 Z"/></g>
<g><path style="opacity:0.012" fill="#010202" d="M 261.5,273.5 C 261.833,273.5 262.167,273.5 262.5,273.5C 262.315,274.17 261.981,274.17 261.5,273.5 Z"/></g>
<g><path style="opacity:1" fill="#e0ebe7" d="M 207.5,271.5 C 212.421,271.847 212.254,272.847 207,274.5C 206.251,275.635 206.417,276.635 207.5,277.5C 209.412,275.844 211.412,275.511 213.5,276.5C 212.264,277.357 210.931,278.023 209.5,278.5C 208.167,279.833 208.167,281.167 209.5,282.5C 211.413,281.627 213.247,280.627 215,279.5C 215.167,279.833 215.333,280.167 215.5,280.5C 213.772,282.452 211.605,283.785 209,284.5C 206.898,281.407 205.065,278.074 203.5,274.5C 204.901,273.479 206.235,272.479 207.5,271.5 Z"/></g>
<g><path style="opacity:0.02" fill="#020302" d="M 256.5,277.5 C 256.833,277.5 257.167,277.5 257.5,277.5C 257.315,278.17 256.981,278.17 256.5,277.5 Z"/></g>
<g><path style="opacity:1" fill="#e3eeeb" d="M 134.5,278.5 C 136.89,278.913 139.223,279.579 141.5,280.5C 139.599,281.231 137.599,281.231 135.5,280.5C 135.5,281.833 135.5,283.167 135.5,284.5C 137.288,284.215 138.955,284.548 140.5,285.5C 138.674,285.92 136.674,285.92 134.5,285.5C 134.785,287.288 134.452,288.955 133.5,290.5C 133.167,289.5 132.833,288.5 132.5,287.5C 133.172,284.488 133.839,281.488 134.5,278.5 Z"/></g>
<g><path style="opacity:0.01" fill="#0a0a0c" d="M 65.5,279.5 C 66.1667,279.5 66.5,279.833 66.5,280.5C 66.8333,281.833 67.1667,281.833 67.5,280.5C 68.5,280.833 69.1667,281.5 69.5,282.5C 69.5,283.167 69.8333,283.5 70.5,283.5C 70.5,284.167 70.8333,284.5 71.5,284.5C 71.5,284.833 71.5,285.167 71.5,285.5C 69.4048,284.588 67.4048,283.421 65.5,282C 64.4019,281.23 64.4019,280.397 65.5,279.5 Z"/></g>
<g><path style="opacity:1" fill="#dfeae7" d="M 147.5,281.5 C 149.527,281.338 151.527,281.505 153.5,282C 154.731,283.183 154.731,284.349 153.5,285.5C 152.579,283.244 150.912,282.244 148.5,282.5C 148.281,283.675 148.614,284.675 149.5,285.5C 153.558,285.712 155.058,287.712 154,291.5C 151.413,294.034 148.747,294.034 146,291.5C 145.807,287.74 146.641,287.574 148.5,291C 149.793,291.49 151.127,291.657 152.5,291.5C 152.719,290.325 152.386,289.325 151.5,288.5C 146.8,287.985 145.467,285.651 147.5,281.5 Z"/></g>
<g><path style="opacity:1" fill="#d7e4e0" d="M 173.5,280.5 C 176.247,280.187 178.914,280.52 181.5,281.5C 179.604,282.466 177.604,282.799 175.5,282.5C 175.5,283.5 175.5,284.5 175.5,285.5C 183.5,286.167 183.5,286.833 175.5,287.5C 175.5,288.5 175.5,289.5 175.5,290.5C 177.924,290.192 180.257,290.526 182.5,291.5C 179.572,292.484 176.572,292.817 173.5,292.5C 173.5,288.5 173.5,284.5 173.5,280.5 Z"/></g>
<g><path style="opacity:1" fill="#2c2c3f" d="M 255.5,277.5 C 255.5,278.167 255.833,278.5 256.5,278.5C 252.698,282.237 248.365,285.237 243.5,287.5C 243.5,287.167 243.5,286.833 243.5,286.5C 244.833,286.167 244.833,285.833 243.5,285.5C 243.953,284.542 244.619,283.708 245.5,283C 244.906,282.536 244.239,282.369 243.5,282.5C 244.945,280.937 246.611,279.604 248.5,278.5C 248.369,279.376 248.702,280.043 249.5,280.5C 250.622,279.37 251.956,278.703 253.5,278.5C 253.842,277.662 254.508,277.328 255.5,277.5 Z"/></g>
<g><path style="opacity:1" fill="#dfeae7" d="M 196.5,275.5 C 199.157,275.162 201.49,275.829 203.5,277.5C 201.657,277.755 199.657,277.922 197.5,278C 195.835,281.188 196.501,283.688 199.5,285.5C 201.383,285.124 202.883,284.124 204,282.5C 204.165,286.977 201.998,288.477 197.5,287C 193.92,283.442 193.587,279.609 196.5,275.5 Z"/></g>
<g><path style="opacity:1" fill="#dee9e6" d="M 189.5,277.5 C 190.496,277.414 191.329,277.748 192,278.5C 195.432,289.882 193.432,291.548 186,283.5C 186.198,286.235 186.031,288.901 185.5,291.5C 184.185,287.571 183.185,283.571 182.5,279.5C 183.552,279.351 184.552,279.517 185.5,280C 189.929,286.081 191.262,285.248 189.5,277.5 Z"/></g>
<g><path style="opacity:1" fill="#d6e5e3" d="M 168.5,281.5 C 169.794,283.048 170.461,285.048 170.5,287.5C 170.167,289.5 169.833,291.5 169.5,293.5C 168.509,289.555 168.176,285.555 168.5,281.5 Z"/></g>
<g><path style="opacity:0.009" fill="#09090a" d="M 72.5,284.5 C 73.1667,284.5 73.5,284.833 73.5,285.5C 73.5,286.167 73.8333,286.5 74.5,286.5C 74.5,286.833 74.5,287.167 74.5,287.5C 72.9731,287.573 71.9731,286.906 71.5,285.5C 72.1667,285.5 72.5,285.167 72.5,284.5 Z"/></g>
<g><path style="opacity:1" fill="#dae6e2" d="M 123.5,276.5 C 130.503,275.673 133.003,278.673 131,285.5C 127.667,289.5 124.333,289.5 121,285.5C 120.131,282.007 120.964,279.007 123.5,276.5 Z"/></g>
<g><path style="opacity:1" fill="#0f5e40" d="M 124.5,278.5 C 129.068,278.083 130.568,280.083 129,284.5C 126.09,287.309 123.923,286.809 122.5,283C 122.519,281.167 123.185,279.667 124.5,278.5 Z"/></g>
<g><path style="opacity:0.009" fill="#020202" d="M 75.5,286.5 C 76.1667,286.833 76.8333,287.167 77.5,287.5C 77.5,288.167 77.8333,288.5 78.5,288.5C 78.5,289.167 78.8333,289.5 79.5,289.5C 79.5,289.833 79.5,290.167 79.5,290.5C 77.326,290.25 75.6594,289.25 74.5,287.5C 75.1667,287.5 75.5,287.167 75.5,286.5 Z"/></g>
<g><path style="opacity:0.009" fill="#17181a" d="M 242.5,286.5 C 242.5,287.167 242.833,287.5 243.5,287.5C 242.655,289.762 241.322,290.429 239.5,289.5C 239.5,288.833 239.167,288.5 238.5,288.5C 239.287,286.896 240.62,286.229 242.5,286.5 Z"/></g>
<g><path style="opacity:1" fill="#dee9e6" d="M 159.5,281.5 C 162.596,280.907 164.929,281.907 166.5,284.5C 164.22,283.689 161.72,283.689 159,284.5C 157.394,291.404 159.56,293.071 165.5,289.5C 166.594,290.868 166.26,292.035 164.5,293C 157.806,294.176 155.306,291.343 157,284.5C 157.698,283.309 158.531,282.309 159.5,281.5 Z"/></g>
<g><path style="opacity:0.009" fill="#0b0a0c" d="M 80.5,289.5 C 81.1667,289.5 81.5,289.833 81.5,290.5C 81.8333,291.833 82.1667,291.833 82.5,290.5C 83.7095,290.932 84.7095,291.599 85.5,292.5C 85.8333,293.833 86.1667,293.833 86.5,292.5C 87.4916,292.328 88.1583,292.662 88.5,293.5C 87.1667,293.833 87.1667,294.167 88.5,294.5C 88.44,295.043 88.1067,295.376 87.5,295.5C 84.7231,293.821 82.0564,292.155 79.5,290.5C 80.1667,290.5 80.5,290.167 80.5,289.5 Z"/></g>
<g><path style="opacity:0.012" fill="#171717" d="M 238.5,288.5 C 239.167,288.5 239.5,288.833 239.5,289.5C 238.198,291.822 236.198,293.155 233.5,293.5C 233.5,292.833 233.167,292.5 232.5,292.5C 233.209,291.596 234.209,291.263 235.5,291.5C 236.167,291.5 236.5,291.167 236.5,290.5C 236.5,289.167 237.167,288.5 238.5,288.5 Z"/></g>
<g><path style="opacity:0.99" fill="#3c3c6f" d="M 243.5,282.5 C 244.239,282.369 244.906,282.536 245.5,283C 244.619,283.708 243.953,284.542 243.5,285.5C 243.5,285.833 243.5,286.167 243.5,286.5C 243.167,286.5 242.833,286.5 242.5,286.5C 240.62,286.229 239.287,286.896 238.5,288.5C 237.167,288.5 236.5,289.167 236.5,290.5C 235.833,290.5 235.5,290.833 235.5,291.5C 234.209,291.263 233.209,291.596 232.5,292.5C 231.508,292.328 230.842,292.662 230.5,293.5C 229.833,293.5 229.5,293.833 229.5,294.5C 229.167,294.5 228.833,294.5 228.5,294.5C 227.508,294.328 226.842,294.662 226.5,295.5C 226.167,295.5 225.833,295.5 225.5,295.5C 225.167,295.5 224.833,295.5 224.5,295.5C 220.665,296.444 216.998,297.778 213.5,299.5C 211.279,299.561 210.946,298.895 212.5,297.5C 223.257,293.288 233.591,288.288 243.5,282.5 Z"/></g>
<g><path style="opacity:0.012" fill="#070709" d="M 232.5,292.5 C 233.167,292.5 233.5,292.833 233.5,293.5C 232.486,294.674 231.153,295.34 229.5,295.5C 229.5,295.167 229.5,294.833 229.5,294.5C 230.167,294.5 230.5,294.167 230.5,293.5C 230.842,292.662 231.508,292.328 232.5,292.5 Z"/></g>
<g><path style="opacity:0.011" fill="#030303" d="M 90.5,294.5 C 91.1667,294.5 91.5,294.833 91.5,295.5C 91.8333,296.833 92.1667,296.833 92.5,295.5C 93.1667,295.833 93.8333,296.167 94.5,296.5C 94.5,297.167 94.5,297.833 94.5,298.5C 93.0783,298.291 91.745,297.791 90.5,297C 89.4019,296.23 89.4019,295.397 90.5,294.5 Z"/></g>
<g><path style="opacity:0.01" fill="#080809" d="M 226.5,295.5 C 226.842,294.662 227.508,294.328 228.5,294.5C 228.5,295.167 228.833,295.5 229.5,295.5C 226.28,297.94 222.613,299.607 218.5,300.5C 218.5,300.167 218.5,299.833 218.5,299.5C 219.167,299.5 219.5,299.167 219.5,298.5C 220.167,298.167 220.833,297.833 221.5,297.5C 221.833,298.833 222.167,298.833 222.5,297.5C 222.833,297.5 223.167,297.5 223.5,297.5C 224.167,297.5 224.5,297.167 224.5,296.5C 224.5,296.167 224.5,295.833 224.5,295.5C 224.833,295.5 225.167,295.5 225.5,295.5C 226.849,296.644 227.183,296.644 226.5,295.5 Z"/></g>
<g><path style="opacity:0.011" fill="#0a0a0b" d="M 96.5,297.5 C 97.4916,297.328 98.1583,297.662 98.5,298.5C 98.5,299.167 98.8333,299.5 99.5,299.5C 99.8333,299.5 100.167,299.5 100.5,299.5C 100.833,300.833 101.167,300.833 101.5,299.5C 102.167,299.833 102.833,300.167 103.5,300.5C 103.833,301.833 104.167,301.833 104.5,300.5C 105.492,300.328 106.158,300.662 106.5,301.5C 106.833,301.5 107.167,301.5 107.5,301.5C 107.53,302.497 107.03,303.164 106,303.5C 101.942,302.101 98.1082,300.434 94.5,298.5C 95.4916,298.672 96.1583,298.338 96.5,297.5 Z"/></g>
<g><path style="opacity:0.996" fill="#3f3f56" d="M 224.5,295.5 C 224.5,295.833 224.5,296.167 224.5,296.5C 223.833,296.5 223.5,296.833 223.5,297.5C 223.167,297.5 222.833,297.5 222.5,297.5C 222.167,297.5 221.833,297.5 221.5,297.5C 220.833,297.833 220.167,298.167 219.5,298.5C 218.833,298.5 218.5,298.833 218.5,299.5C 217.167,299.833 217.167,300.167 218.5,300.5C 216.78,301.864 214.78,302.864 212.5,303.5C 211.818,302.757 211.151,302.091 210.5,301.5C 209.833,301.5 209.5,301.833 209.5,302.5C 209.167,302.5 208.833,302.5 208.5,302.5C 207.833,302.5 207.167,302.5 206.5,302.5C 207.429,301.685 208.429,300.852 209.5,300C 208.906,299.536 208.239,299.369 207.5,299.5C 208.93,298.463 210.597,297.796 212.5,297.5C 210.946,298.895 211.279,299.561 213.5,299.5C 216.998,297.778 220.665,296.444 224.5,295.5 Z"/></g>
<g><path style="opacity:0.01" fill="#0a0a0a" d="M 210.5,301.5 C 210.719,302.675 210.386,303.675 209.5,304.5C 206.904,305.482 204.238,306.149 201.5,306.5C 201.5,305.833 201.167,305.5 200.5,305.5C 200.842,304.662 201.508,304.328 202.5,304.5C 202.833,305.833 203.167,305.833 203.5,304.5C 203.5,303.833 203.833,303.5 204.5,303.5C 204.833,304.833 205.167,304.833 205.5,303.5C 205.833,303.5 206.167,303.5 206.5,303.5C 206.5,303.167 206.5,302.833 206.5,302.5C 207.167,302.5 207.833,302.5 208.5,302.5C 208.833,303.833 209.167,303.833 209.5,302.5C 209.5,301.833 209.833,301.5 210.5,301.5 Z"/></g>
<g><path style="opacity:0.01" fill="#090a0b" d="M 109.5,302.5 C 110.791,302.263 111.791,302.596 112.5,303.5C 112.833,304.833 113.167,304.833 113.5,303.5C 114.167,303.5 114.5,303.833 114.5,304.5C 114.833,305.833 115.167,305.833 115.5,304.5C 116.791,304.263 117.791,304.596 118.5,305.5C 117.508,305.328 116.842,305.662 116.5,306.5C 113.689,306.174 111.022,305.341 108.5,304C 109.056,303.617 109.389,303.117 109.5,302.5 Z"/></g>
<g><path style="opacity:0.009" fill="#09080a" d="M 118.5,305.5 C 118.833,305.5 119.167,305.5 119.5,305.5C 119.833,306.833 120.167,306.833 120.5,305.5C 121.791,305.263 122.791,305.596 123.5,306.5C 122.761,306.369 122.094,306.536 121.5,307C 123.134,307.494 124.801,307.66 126.5,307.5C 126.5,307.833 126.5,308.167 126.5,308.5C 122.878,308.678 119.544,308.011 116.5,306.5C 117.492,306.672 118.158,306.338 118.5,305.5 Z"/></g>
<g><path style="opacity:0.984" fill="#454371" d="M 56.5,271.5 C 59.4645,273.448 62.4645,275.448 65.5,277.5C 66.1067,277.376 66.44,277.043 66.5,276.5C 109.562,307.098 156.562,314.764 207.5,299.5C 208.239,299.369 208.906,299.536 209.5,300C 208.429,300.852 207.429,301.685 206.5,302.5C 206.5,302.833 206.5,303.167 206.5,303.5C 206.167,303.5 205.833,303.5 205.5,303.5C 205.167,303.5 204.833,303.5 204.5,303.5C 203.833,303.5 203.5,303.833 203.5,304.5C 203.167,304.5 202.833,304.5 202.5,304.5C 201.508,304.328 200.842,304.662 200.5,305.5C 199.209,305.263 198.209,305.596 197.5,306.5C 196.5,306.5 195.5,306.5 194.5,306.5C 194.167,306.5 193.833,306.5 193.5,306.5C 192.833,306.5 192.5,306.833 192.5,307.5C 192.167,307.5 191.833,307.5 191.5,307.5C 190.833,307.5 190.167,307.5 189.5,307.5C 188.209,307.263 187.209,307.596 186.5,308.5C 185.167,308.5 183.833,308.5 182.5,308.5C 180.265,308.205 178.265,308.539 176.5,309.5C 165.119,310.829 153.452,310.829 141.5,309.5C 139.735,308.539 137.735,308.205 135.5,308.5C 134.5,308.5 133.5,308.5 132.5,308.5C 131.791,307.596 130.791,307.263 129.5,307.5C 128.5,307.5 127.5,307.5 126.5,307.5C 125.791,306.596 124.791,306.263 123.5,306.5C 122.791,305.596 121.791,305.263 120.5,305.5C 120.167,305.5 119.833,305.5 119.5,305.5C 119.167,305.5 118.833,305.5 118.5,305.5C 117.791,304.596 116.791,304.263 115.5,304.5C 115.167,304.5 114.833,304.5 114.5,304.5C 114.5,303.833 114.167,303.5 113.5,303.5C 113.167,303.5 112.833,303.5 112.5,303.5C 111.791,302.596 110.791,302.263 109.5,302.5C 108.833,302.167 108.167,301.833 107.5,301.5C 107.167,301.5 106.833,301.5 106.5,301.5C 106.158,300.662 105.492,300.328 104.5,300.5C 104.167,300.5 103.833,300.5 103.5,300.5C 102.833,300.167 102.167,299.833 101.5,299.5C 101.167,299.5 100.833,299.5 100.5,299.5C 100.167,299.5 99.8333,299.5 99.5,299.5C 98.8333,299.5 98.5,299.167 98.5,298.5C 98.1583,297.662 97.4916,297.328 96.5,297.5C 95.8333,297.167 95.1667,296.833 94.5,296.5C 93.8333,296.167 93.1667,295.833 92.5,295.5C 92.1667,295.5 91.8333,295.5 91.5,295.5C 91.5,294.833 91.1667,294.5 90.5,294.5C 89.8333,294.5 89.1667,294.5 88.5,294.5C 88.5,294.167 88.5,293.833 88.5,293.5C 88.1583,292.662 87.4916,292.328 86.5,292.5C 86.1667,292.5 85.8333,292.5 85.5,292.5C 84.7095,291.599 83.7095,290.932 82.5,290.5C 82.1667,290.5 81.8333,290.5 81.5,290.5C 81.5,289.833 81.1667,289.5 80.5,289.5C 80.1667,289.5 79.8333,289.5 79.5,289.5C 78.8333,289.5 78.5,289.167 78.5,288.5C 77.8333,288.5 77.5,288.167 77.5,287.5C 76.8333,287.167 76.1667,286.833 75.5,286.5C 75.1667,286.5 74.8333,286.5 74.5,286.5C 73.8333,286.5 73.5,286.167 73.5,285.5C 73.5,284.833 73.1667,284.5 72.5,284.5C 72.1667,284.5 71.8333,284.5 71.5,284.5C 70.8333,284.5 70.5,284.167 70.5,283.5C 69.8333,283.5 69.5,283.167 69.5,282.5C 69.1667,281.5 68.5,280.833 67.5,280.5C 67.1667,280.5 66.8333,280.5 66.5,280.5C 66.5,279.833 66.1667,279.5 65.5,279.5C 64.2928,278.811 62.9594,278.645 61.5,279C 61.7914,277.042 60.7914,275.542 58.5,274.5C 57.8333,274.5 57.5,274.167 57.5,273.5C 57.1667,272.833 56.8333,272.167 56.5,271.5 Z"/></g>
<g><path style="opacity:0.011" fill="#060606" d="M 193.5,306.5 C 193.833,306.5 194.167,306.5 194.5,306.5C 195.209,307.404 196.209,307.737 197.5,307.5C 194.727,308.657 191.727,309.324 188.5,309.5C 188.158,308.662 187.492,308.328 186.5,308.5C 187.209,307.596 188.209,307.263 189.5,307.5C 190.167,308.833 190.833,308.833 191.5,307.5C 191.833,307.5 192.167,307.5 192.5,307.5C 193.167,307.5 193.5,307.167 193.5,306.5 Z"/></g>
<g><path style="opacity:0.012" fill="#010101" d="M 197.5,307.5 C 197.5,307.167 197.5,306.833 197.5,306.5C 198.833,306.5 200.167,306.5 201.5,306.5C 200.432,307.434 199.099,307.768 197.5,307.5 Z"/></g>
<g><path style="opacity:0.012" fill="#101011" d="M 129.5,307.5 C 130.791,307.263 131.791,307.596 132.5,308.5C 131.551,309.752 132.551,309.752 135.5,308.5C 137.735,308.205 139.735,308.539 141.5,309.5C 139.585,309.216 137.919,309.549 136.5,310.5C 132.84,310.841 129.507,310.175 126.5,308.5C 127.791,308.737 128.791,308.404 129.5,307.5 Z"/></g>
<g><path style="opacity:0.012" fill="#131415" d="M 176.5,309.5 C 178.265,308.539 180.265,308.205 182.5,308.5C 184.265,309.461 186.265,309.795 188.5,309.5C 186.393,310.468 184.059,310.802 181.5,310.5C 180.081,309.549 178.415,309.216 176.5,309.5 Z"/></g>
<g><path style="opacity:0.014" fill="#010101" d="M 136.5,310.5 C 138.527,310.338 140.527,310.505 142.5,311C 140.288,311.789 138.288,311.622 136.5,310.5 Z"/></g>
<g><path style="opacity:0.016" fill="#010202" d="M 181.5,310.5 C 180.054,311.613 178.387,311.78 176.5,311C 178.134,310.506 179.801,310.34 181.5,310.5 Z"/></g>
<g><path style="opacity:0.019" fill="#030303" d="M 148.5,312.5 C 155.833,311.167 163.167,311.167 170.5,312.5C 163.167,312.5 155.833,312.5 148.5,312.5 Z"/></g>
</svg>
